<?xml version="1.0" encoding="UTF-8"?>
<svg width="210px" height="541px" viewBox="0 0 210 541" version="1.1" xmlns="http://www.w3.org/2000/svg" xmlns:xlink="http://www.w3.org/1999/xlink">
    <!-- Generator: sketchtool 64 (101010) - https://sketch.com -->
    <title>272027B9-8C58-4EB9-9347-80C65E633579</title>
    <desc>Created with sketchtool.</desc>
    <defs>
        <filter x="-30.4%" y="-11.3%" width="160.7%" height="122.6%" filterUnits="objectBoundingBox" id="filter-1">
            <feOffset dx="0" dy="20" in="SourceAlpha" result="shadowOffsetOuter1"></feOffset>
            <feGaussianBlur stdDeviation="5" in="shadowOffsetOuter1" result="shadowBlurOuter1"></feGaussianBlur>
            <feColorMatrix values="0 0 0 0 0   0 0 0 0 0   0 0 0 0 0  0 0 0 0.5 0" type="matrix" in="shadowBlurOuter1" result="shadowMatrixOuter1"></feColorMatrix>
            <feMerge>
                <feMergeNode in="shadowMatrixOuter1"></feMergeNode>
                <feMergeNode in="SourceGraphic"></feMergeNode>
            </feMerge>
        </filter>
        <polygon id="path-2" points="-0.00294230769 0.00685314685 16.8634863 0.00685314685 16.8634863 29.1475301 -0.00294230769 29.1475301"></polygon>
        <polygon id="path-4" points="0 0.599366689 46.6245529 0.599366689 46.6245529 63.2851312 0 63.2851312"></polygon>
        <polygon id="path-6" points="0 512.471795 191 512.471795 191 0.861538462 0 0.861538462"></polygon>
    </defs>
    <g id="Landing-page" stroke="none" stroke-width="1" fill="none" fill-rule="evenodd">
        <g id="01-HOME" transform="translate(-101.000000, -3436.000000)">
            <g id="04-Nos-engagements" transform="translate(-240.000000, 3245.000000)">
                <g id="Group-149" filter="url(#filter-1)" transform="translate(351.000000, 190.989744)">
                    <path d="M183.516189,95.3435897 L187.917035,79.6340811 C187.917035,79.6340811 189.510377,73.2503155 189.890877,71.7590093 C190.392925,69.7855006 189.045322,69.1515939 188.234118,70.4884869 C187.927605,70.996425 184.497825,77.4804237 184.497825,77.4804237 C184.497825,77.4804237 187.280227,66.8394598 187.380637,66.4520724 C188.281681,62.977776 186.175722,63.3191104 185.548162,64.5584792 C184.899463,65.8398377 181.000664,76.2992984 181.000664,76.2992984 C184.697323,62.6161241 183.591496,61.3984272 182.5874,61.1722254 C181.584625,60.9473782 178.319992,73.4589087 178.319992,73.4589087 C178.319992,73.4589087 177.20756,71.3052513 175.124061,69.8071726 C171.913596,67.499102 166.508654,69.7231935 166.23517,71.2808703 C165.961686,72.838547 167.880037,73.2936595 167.880037,73.2936595 C171.953232,70.6564451 176.073988,73.9356933 175.615539,77.8921922 C175.154448,81.8486911 170.267408,81.2513559 169.682125,78.4272203 C168.401903,72.2303758 166.307835,74.2201386 166.307835,74.2201386 L168.2645,87.8816409 L166,94.7218735" id="Fill-1" fill="#FFCCB0"></path>
                    <path d="M110.572983,41.0666667 C115.794682,39.5721182 119,37.549466 119,35.3218557 C119,30.7230148 105.344412,26.9948718 88.5,26.9948718 C71.6555881,26.9948718 58,30.7230148 58,35.3218557 C58,37.5374976 61.1723299,39.5526696 66.3459216,41.044226" id="Fill-3" fill="#FF4F5B"></path>
                    <path d="M107.536023,41.0666667 C112.157916,39.679597 115.113346,37.7956899 114.996667,35.7315421 C114.669963,29.9857823 102.908639,28 87.9983333,28 C73.0866547,28 61,31.4621886 61,35.7315421 C61,37.7894207 63.8085515,39.6607893 68.3865178,41.0447243" id="Fill-5" fill="#000000"></path>
                    <path d="M115,34.0307692 C115,34.0307692 110.573222,15.869408 110.193863,14.9853555 C109.814505,14.1026953 104.62901,6.15039973 92.237099,3.87692308 L81.9930265,3.87692308 C81.9930265,3.87692308 67.4504881,8.54778294 64.7949791,12.0826006 C62.13947,15.6174182 61,32.7847425 61,32.7847425 L89.7266388,26.5518246 L109.263598,31.3076092 L115,34.0307692 Z" id="Fill-7" fill="#FF4F5B"></path>
                    <g id="Group-11" transform="translate(79.000000, 0.861538)">
                        <mask id="mask-3" fill="white">
                            <use xlink:href="#path-2"></use>
                        </mask>
                        <g id="Clip-10"></g>
                        <path d="M9.76271703,0.00657902098 L14.1803819,0.00657902098 C14.1803819,0.00657902098 15.7299973,1.4196979 15.9345577,4.54884476 C16.1419203,7.67799161 16.8634863,29.1475301 16.8634863,29.1475301 L3.96496978,28.5732364 L4.37829396,2.05566993 L-0.00294230769,3.00688671 L0.135766484,1.50467692 L1.29587637,0.164201399 L9.76271703,0.00657902098 Z" id="Fill-9" fill="#FF4F5B" mask="url(#mask-3)"></path>
                    </g>
                    <g id="Group-14" transform="translate(0.000000, 448.143590)">
                        <mask id="mask-5" fill="white">
                            <use xlink:href="#path-4"></use>
                        </mask>
                        <g id="Clip-13"></g>
                        <path d="M23.0775529,0.599366689 L14.6949647,33.7242189 L0.477464706,58.0210082 C-0.545476471,59.7706523 0.131876471,62.0199981 1.95658235,62.9189105 C2.97814118,63.4227419 4.16972941,63.4075995 5.17331765,62.8679767 C11.5570235,59.4388944 34.9768471,46.7054496 35.4537588,44.2468623 C36.0067,41.4014536 46.6245529,9.89133993 46.6245529,9.89133993 L23.0775529,0.599366689 Z" id="Fill-12" fill="#FF4F5B" mask="url(#mask-5)"></path>
                    </g>
                    <path d="M1,511.067335 L34,490.358974 L33.6242554,491.741078 C33.3006605,492.936263 32.5772519,493.97864 31.5703635,494.674467 C28.8813161,496.536827 21.3410187,501.512673 4.20786904,511.04414 C3.21167794,511.599438 2.00421411,511.607624 1,511.067335" id="Fill-15" fill="#FFFFFF"></path>
                    <path d="M31.0227864,478.388527 C30.2903261,478.645317 29.8327949,479.525002 30.0574571,480.269588 C30.2821193,481.016238 31.1674319,481.492691 31.9029698,481.248277 C32.6395335,481.004894 33.2232448,479.966391 32.9165142,479.25068 C32.6097837,478.536001 31.5398172,478.032734 30.8822443,478.44731" id="Fill-17" fill="#FFFFFF"></path>
                    <path d="M13.9024429,499.404589 C13.6869663,499.441169 13.4137476,497.609548 11.6730347,496.216889 C9.97738888,494.773279 7.98599084,494.738005 8.00007428,494.532895 C7.9944409,494.449283 8.49158624,494.31472 9.31124229,494.415316 C10.1238566,494.508073 11.2322231,494.902616 12.1828552,495.683864 C13.1292622,496.467724 13.6827412,497.443631 13.8756843,498.18046 C14.0784858,498.925127 13.9925769,499.399363 13.9024429,499.404589" id="Fill-19" fill="#1A2E35"></path>
                    <path d="M10.959955,502.416348 C10.7514577,502.497046 9.94662893,501.387449 8.28594067,500.607369 C6.64712276,499.798148 4.99664066,499.725295 5.00101473,499.544846 C4.94998392,499.387933 6.83229169,499.17498 8.70730934,500.089557 C10.5939912,500.988443 11.1669942,502.382724 10.959955,502.416348" id="Fill-21" fill="#1A2E35"></path>
                    <path d="M19.9780316,495.3803 C19.7860038,495.490707 18.6631747,493.460798 16.4268512,491.812661 C14.2171983,490.131268 11.9488701,489.621795 12.0008776,489.407631 C11.9968771,489.224061 14.4879041,489.435565 16.8629143,491.234017 C19.2565939,493.005864 20.1567241,495.333742 19.9780316,495.3803" id="Fill-23" fill="#1A2E35"></path>
                    <path d="M21.9907764,485.317321 C21.855966,485.489181 20.3419407,484.237057 18.1344193,483.504606 C15.9385641,482.739419 14.0149224,482.821257 14.0006636,482.59893 C13.9578872,482.414794 15.989118,481.981052 18.35219,482.796706 C20.7217433,483.590536 22.1281794,485.194564 21.9907764,485.317321" id="Fill-25" fill="#1A2E35"></path>
                    <path d="M24.9908679,474.269268 C24.8521628,474.378248 23.4787345,473.294036 21.201246,472.903756 C18.9349035,472.475288 17.0599076,472.973615 17.001701,472.82924 C16.9695016,472.772421 17.3955244,472.56005 18.1881251,472.405429 C18.9745336,472.248944 20.1349505,472.192126 21.3585277,472.410086 C22.582105,472.631772 23.5815249,473.079801 24.1883598,473.486846 C24.8013868,473.894823 25.0527899,474.229215 24.9908679,474.269268" id="Fill-27" fill="#1A2E35"></path>
                    <path d="M20.1028501,471.225377 C20.0608687,471.215171 20.1082671,470.786506 20.39672,470.060583 C20.685173,469.339762 21.2322856,468.311477 22.2574447,467.290847 C22.7747641,466.814978 23.35167,466.180911 24.3741206,466.015058 C24.8833146,465.929581 25.5306409,466.182187 25.7960718,466.686123 C26.0601485,467.177301 26.0357722,467.710581 25.9030567,468.196656 C25.3017745,470.125648 22.9873797,471.539221 20.5917305,471.215171 C18.200144,470.850296 16.4626551,469.053986 16.0347155,467.141579 C15.9602323,466.65678 15.9764832,466.089054 16.3800465,465.638701 C16.7795471,465.183244 17.4986481,465.147522 17.9401301,465.343994 C18.8637212,465.729282 19.3160371,466.409277 19.768353,466.945108 C20.6364204,468.079284 21.0657142,469.148394 21.2823925,469.889627 C21.4990708,470.637239 21.5126132,471.06718 21.4706317,471.074834 C21.3338536,471.12459 21.0914448,469.362727 19.3512473,467.241091 C18.9029942,466.739706 18.3965087,466.122225 17.7220976,465.882376 C17.3943717,465.763728 17.0666458,465.813484 16.8716353,466.039298 C16.6752706,466.253631 16.631935,466.652952 16.7050639,467.039516 C17.0828966,468.610012 18.6727735,470.248124 20.7000696,470.527521 C22.7151776,470.820953 24.7492449,469.573232 25.2489592,468.025701 C25.3627153,467.651895 25.3681322,467.24747 25.2205202,466.968072 C25.0756166,466.693778 24.7736212,466.552165 24.4418326,466.587887 C23.7416909,466.663159 23.1295748,467.193887 22.6285063,467.636585 C20.6052729,469.5222 20.238274,471.29427 20.1028501,471.225377" id="Fill-29" fill="#1A2E35"></path>
                    <path d="M111.622779,460.128387 L109.806378,486.689121 C109.806378,486.689121 135.863326,497.479721 136,502.420513 L85,500.702097 L86.1562642,459.2 L111.622779,460.128387 Z" id="Fill-31" fill="#FF4F5B"></path>
                    <path d="M94.1685527,482.373512 C93.4183512,482.553294 92.8770535,483.380503 93.0242124,484.144319 C93.1713713,484.907096 93.9997831,485.470346 94.7520428,485.304073 C95.5053316,485.1378 96.1855555,484.166142 95.9540118,483.42311 C95.7234972,482.680078 94.7149958,482.072142 94.023452,482.417158" id="Fill-33" fill="#E1E1E1"></path>
                    <path d="M85,499.657943 L85.2786616,495.384615 L134.04445,498.668852 C134.04445,498.668852 136.280574,499.768314 135.970494,501.415385 L85,499.657943 Z" id="Fill-35" fill="#FFFFFF"></path>
                    <path d="M109.998066,484.586178 C109.980773,484.834086 108.663655,484.904917 107.343654,485.662264 C106.003478,486.38692 105.298805,487.441212 105.061032,487.336328 C104.820377,487.28048 105.26422,485.808013 106.879636,484.917177 C108.486406,484.014081 110.062913,484.360064 109.998066,484.586178" id="Fill-37" fill="#1A2E35"></path>
                    <path d="M114.998696,487.429748 C115.039768,487.618844 114.102167,487.919487 113.346454,488.716242 C112.56375,489.492813 112.347832,490.373493 112.136608,490.35862 C111.933598,490.381992 111.826813,489.244225 112.787883,488.270059 C113.739565,487.287394 115.001043,487.2449 114.998696,487.429748" id="Fill-39" fill="#1A2E35"></path>
                    <path d="M118.223485,494.378088 C118.034558,494.431601 117.77962,492.941349 118.349816,491.350558 C118.912045,489.750037 119.90562,489.158153 119.987565,489.409501 C120.097962,489.657606 119.449236,490.494353 118.995128,491.814336 C118.519395,493.116482 118.430622,494.358629 118.223485,494.378088" id="Fill-41" fill="#1A2E35"></path>
                    <path d="M109.990747,479.089462 C109.885449,479.254303 108.822204,478.973873 107.496999,479.010057 C106.17051,479.025134 105.126526,479.344765 105.010956,479.18495 C104.881261,479.048252 105.914972,478.397934 107.477737,478.371801 C109.039219,478.337626 110.111453,478.948744 109.990747,479.089462" id="Fill-43" fill="#1A2E35"></path>
                    <path d="M110,474.062682 C110,474.176767 109.095254,474.310625 107.665759,473.953162 C106.95351,473.773669 106.118805,473.454233 105.246612,472.940094 C104.813015,472.683024 104.368172,472.378799 103.930826,472.019815 C103.720901,471.841843 103.469739,471.663872 103.243569,471.321619 C102.998655,471.023479 102.876199,470.282692 103.178592,469.844609 C103.429753,469.417174 103.857102,469.246808 104.194483,469.251371 C104.538112,469.251371 104.814265,469.345681 105.066676,469.433906 C105.581494,469.607314 106.062574,469.837003 106.50117,470.098637 C107.37836,470.627987 108.085611,471.28207 108.607926,471.90573 C109.656306,473.169783 109.996187,474.220879 109.917464,474.271076 C109.812501,474.35778 109.308929,473.467923 108.235558,472.416828 C107.700746,471.893561 107.012239,471.348999 106.191279,470.904832 C105.780174,470.68579 105.33658,470.492607 104.865497,470.348101 C104.37567,470.168608 103.955818,470.147312 103.822115,470.410467 C103.773382,470.510861 103.765885,470.55041 103.8646,470.731424 C103.967064,470.897226 104.161995,471.063028 104.369422,471.239479 C104.77178,471.583252 105.180386,471.884435 105.578995,472.147589 C106.379962,472.672376 107.148441,473.038967 107.808208,473.292994 C109.131492,473.799528 110.008682,473.912091 110,474.062682" id="Fill-45" fill="#1A2E35"></path>
                    <path d="M110.430489,473.270792 C110.366005,473.306331 110.029695,472.395985 110.000925,470.781694 C109.990013,469.980699 110.074338,469.012944 110.322354,467.995982 C110.448347,467.490234 110.616005,466.972184 110.831284,466.466437 C111.061443,465.972991 111.342197,465.310052 112.045571,465.230769 C112.411643,465.229406 112.707278,465.636738 112.802516,465.979826 C112.916604,466.329748 112.933469,466.627729 112.970175,466.924344 C113.023747,467.523039 113.001921,468.108066 112.930492,468.643885 C112.786643,469.725091 112.442397,470.613567 112.074341,471.247802 C111.319379,472.535408 110.557474,472.797849 110.543585,472.714469 C110.487037,472.585982 111.128903,472.13491 111.713229,470.889678 C112.000928,470.275946 112.263825,469.461283 112.357079,468.515398 C112.404698,468.045189 112.411643,467.544909 112.358071,467.037795 C112.313428,466.493775 112.177515,466.049537 112.027714,466.098745 C111.845174,466.085076 111.521761,466.478739 111.360054,466.905207 C111.158665,467.353545 110.995966,467.815553 110.866998,468.269359 C110.613029,469.179704 110.491005,470.057245 110.446362,470.80083 C110.360053,472.296203 110.530688,473.237987 110.430489,473.270792" id="Fill-47" fill="#1A2E35"></path>
                    <path d="M68.2093017,101.374359 L99.5275637,99.9449992 C99.7048501,96.6389971 98.0087641,76.182067 98.0087641,76.182067 C98.0087641,76.182067 109.845071,74.349875 109.991646,62.5732842 C110.136826,50.7966933 108.341627,27.2837949 108.341627,27.2837949 L108.140609,26.2544891 C94.4407018,20.3967534 78.5714795,19.8730716 66.7547161,28.9229052 L65,30.2675312 L68.2093017,101.374359 Z" id="Fill-49" fill="#FFCCB0"></path>
                    <path d="M99.9711009,76.316317 C99.9711009,76.316317 92.2290256,76.8839602 84,72.225641 C84,72.225641 87.7756705,80.1700411 100,79.1753637 L99.9711009,76.316317 Z" id="Fill-51" fill="#F9AE85"></path>
                    <path d="M67.5567815,41.4612759 C67.3626548,41.3682595 59.7582418,38.9173516 60.0059207,47.4748591 C60.2535997,56.0323665 67.993232,53.9933883 68,53.7468211 C68.00662,53.5017303 67.5567815,41.4612759 67.5567815,41.4612759" id="Fill-53" fill="#FFCCB0"></path>
                    <path d="M64.9931388,51.4223814 C64.9638646,51.3973267 64.8816716,51.5253838 64.6925151,51.6423054 C64.5078623,51.7550513 64.1869718,51.8413506 63.8435627,51.6965905 C63.1454851,51.411246 62.5296006,50.0819583 62.4609187,48.6287893 C62.4260149,47.8952451 62.5318524,47.1909314 62.7266386,46.6035394 C62.9112914,46.0050119 63.2096632,45.580475 63.5553242,45.4913918 C63.8964815,45.378646 64.1498161,45.6250166 64.2353869,45.8505083 C64.3288392,46.0718243 64.2916834,46.2346794 64.3265873,46.2472067 C64.3457281,46.2666937 64.462825,46.1066224 64.4020247,45.7753444 C64.3704986,45.616665 64.2894316,45.4287552 64.1318012,45.2798193 C63.9719189,45.1294915 63.738851,45.0571114 63.4979017,45.0988692 C62.9957362,45.1615058 62.5577489,45.7530736 62.3426959,46.3975346 C62.1006206,47.0447794 61.9666348,47.8367843 62.0071683,48.6608035 C62.0904873,50.2851792 62.8032019,51.7801059 63.7546141,52.0807616 C64.2184979,52.2088186 64.5956849,52.0236927 64.7893452,51.8260394 C64.9863832,51.6186427 65.0167833,51.4363006 64.9931388,51.4223814" id="Fill-55" fill="#FCA677"></path>
                    <path d="M103.999168,43.4949787 C104.02647,44.3276556 103.378651,45.0380331 102.549641,45.0848711 C101.723113,45.1304082 101.028135,44.4967931 101.000832,43.6641162 C100.97353,42.8327403 101.621349,42.1197607 102.447877,42.0742237 C103.276887,42.0273856 103.971865,42.6636028 103.999168,43.4949787" id="Fill-57" fill="#1A2E35"></path>
                    <path d="M104.971926,40.0430429 C104.75487,40.1655925 103.41757,39.6389397 101.51942,39.6412666 C99.6227271,39.6296321 98.2300706,40.1500799 98.0232116,40.0259791 C97.9226956,39.971685 98.1455789,39.7506304 98.7515884,39.5148389 C99.3503142,39.2813743 100.368585,39.053339 101.550012,39.0564416 C102.732896,39.0595441 103.727859,39.2914575 104.298906,39.5280246 C104.881608,39.7669186 105.079726,39.9879732 104.971926,40.0430429" id="Fill-59" fill="#1A2E35"></path>
                    <path d="M86.9990932,43.4955339 C87.0276473,44.3272341 86.3783507,45.0391903 85.5502801,45.0847451 C84.7234511,45.1316014 84.0282195,44.4964376 84.0009069,43.6647374 C83.9723527,42.8317356 84.6216494,42.1197795 85.4484784,42.0742247 C86.2765489,42.0273683 86.9717805,42.6638337 86.9990932,43.4955339" id="Fill-61" fill="#1A2E35"></path>
                    <path d="M87.9724471,42.0532993 C87.7539205,42.1758489 86.4165375,41.6491961 84.5197263,41.651523 C82.6229152,41.6398885 81.2301721,42.1603363 81.0233002,42.0362355 C80.922778,41.9819414 81.1442183,41.7608868 81.7517223,41.5250953 C82.3504853,41.2916307 83.3673626,41.0635954 84.5488632,41.066698 C85.7332776,41.0698005 86.7268453,41.3017139 87.2979283,41.538281 C87.8821228,41.7771751 88.0787968,41.9990052 87.9724471,42.0532993" id="Fill-63" fill="#1A2E35"></path>
                    <path d="M94.9315688,54.0551378 C94.9224076,53.9460449 96.1591611,53.7396529 98.1623965,53.4934566 C98.6708396,53.4418586 99.1517993,53.3445595 99.2373032,53.0099096 C99.356398,52.6560946 99.144165,52.1268465 98.8983412,51.5563199 C98.4204352,50.3695657 97.9211532,49.1253165 97.3943878,47.820624 C95.3087022,42.5045547 93.8001683,38.1319918 94.0215625,38.0523835 C94.2444835,37.9727751 96.1148823,42.2185543 98.2020947,47.5360978 C98.7044304,48.8481615 99.1838633,50.0968333 99.6403933,51.2924329 C99.8327772,51.8511657 100.164105,52.4821356 99.9045394,53.2177758 C99.7686492,53.5848588 99.3945694,53.85022 99.0693491,53.9342511 C98.7441287,54.0315502 98.4586066,54.0359729 98.2066753,54.0521894 C96.1896983,54.1553854 94.939203,54.1642308 94.9315688,54.0551378" id="Fill-65" fill="#1A2E35"></path>
                    <path d="M90.2914414,55.1386417 C90.5829329,55.1225407 90.5870578,57.0197662 92.2507594,58.3668768 C93.9117111,59.7180126 95.9851508,59.5046754 95.9989004,59.7703406 C96.0263996,59.8897558 95.5369139,60.1393201 94.6638142,60.1621297 C93.8058392,60.1903063 92.5518756,59.9206159 91.5330303,59.0981271 C90.5183098,58.271613 90.0824474,57.1700415 90.0150744,56.3918302 C89.9408265,55.597518 90.1580702,55.1279077 90.2914414,55.1386417" id="Fill-67" fill="#1A2E35"></path>
                    <path d="M88.9909359,35.1575008 C88.8175813,35.5661042 87.0692527,35.3733449 85.0158737,35.5857264 C82.9557756,35.7623261 81.2988278,36.2794287 81.0273732,35.9123782 C80.9050843,35.7369327 81.1940087,35.3525685 81.864582,34.9566618 C82.5270924,34.5607551 83.5873778,34.1856249 84.8196739,34.0678917 C86.0533139,33.952467 87.1821348,34.1198328 87.9306506,34.3818469 C88.6845417,34.6427067 89.0648468,34.9635873 88.9909359,35.1575008" id="Fill-69" fill="#1A2E35"></path>
                    <path d="M103.955002,36.8716555 C103.647639,37.2742817 102.442347,36.8566931 100.994117,36.83765 C99.5458871,36.7655581 98.3191196,37.1069742 98.0359162,36.6853049 C97.9124341,36.4812714 98.1057104,36.0786452 98.6412467,35.6977827 C99.1700721,35.3169201 100.053237,35.0067891 101.049147,35.0380743 C102.043715,35.0693594 102.906747,35.4352595 103.411413,35.8474073 C103.92279,36.2609152 104.090564,36.6744231 103.955002,36.8716555" id="Fill-71" fill="#1A2E35"></path>
                    <path d="M122,212.008872 L116.938278,475.133864 C116.904087,476.903077 115.458466,478.313776 113.698284,478.297436 L83.1775094,478.029439 C81.3886058,478.012955 79.9552947,476.530828 79.9935892,474.734143 L84.7216013,248.262613 L45.0292768,473.054216 C44.5273444,475.890725 42.0245206,477.926418 39.1578983,477.827518 L13.5634472,476.938791 C10.1100973,476.819286 7.53889033,473.695693 8.06954369,470.267157 L48.2651682,210.933333 L122,212.008872 Z" id="Fill-73" fill="#1A2E35"></path>
                    <path d="M184,95.1721781 L164.94964,90.6027537 L152.376705,124.526357 L117.632156,93.6075875 C113.935284,90.9156718 107.562268,90.5808904 102.714159,89.9837497 C102.593266,89.9687187 102.470998,89.9536877 102.347357,89.9386567 C100.466637,89.7186575 99.5448234,89.4480995 98.4155672,89.3128205 C90.0395633,95.5780151 75.7081754,95.9770199 67.4846624,89.5150558 C67.4846624,89.5150558 61.2462774,90.9184047 57.5219299,91.6275947 C45.7911284,93.864481 37.3464351,102.363829 35,110.211378 L49.6844522,143.899951 L52.49935,175.900953 L44.3692547,204.550041 C43.5408588,207.475621 45.517744,210.450392 48.548327,210.834366 L121.298804,211.938462 L122.488507,211.350886 C124.021658,208.544188 125.157783,205.296125 124.443412,202.183342 C121.298804,188.473702 123.492748,147.583913 122.831955,135.03166 C137.100148,148.823287 152.845167,160.264612 164.350667,153.179545 C173.913626,147.290125 184,95.1721781 184,95.1721781" id="Fill-75" fill="#E1E1E1"></path>
                    <path d="M68.499,87.8046256 L68.499,87.8046256 C68.499,87.8046256 68.5,87.8046256 68.501,87.8056308 C68.5,87.8046256 68.499,87.8046256 68.499,87.8046256" id="Fill-77" fill="#FF4F5B"></path>
                    <path d="M65,36.813938 C65.3273741,40.0216845 65.2201808,43.2717279 65.5461064,46.4794744 C65.6677853,47.6747044 66.2298259,48.8549259 66.7686895,49.942367 C67.3090017,51.029808 68.3476179,51.976714 69.6136577,52.1076982 C71.1056726,52.2618774 72.5136711,51.2358351 73.1771107,49.9696553 C73.8405504,48.7021111 73.9115297,47.2394551 73.9231182,45.8259182 C73.9347067,44.4137457 73.9013898,42.9674627 74.3837597,41.6289688 C74.9240719,40.1294735 76.0626386,38.8987686 76.9245307,37.5398083 C77.7878713,36.1794837 78.3803316,34.4821479 77.7125463,33.0276784 C73.1539338,32.9580931 68.9574609,34.6799885 65,36.813938" id="Fill-79" fill="#1A2E35"></path>
                    <path d="M109,35.0855772 L108.751667,28.0712668 L89.7425417,21.9692308 L66,29.506953 L66,37.0461538 C66,37.0461538 85.3041064,26.2378467 109,35.0855772" id="Fill-81" fill="#375A64"></path>
                    <path d="M108.308795,26.5070448 L109.145662,27.3469163 L116,31.7978086 C116,31.7978086 102.836867,27.9693591 89.21064,28.1199959 C75.5857872,28.2706328 60,33.025641 60,33.025641 L69.0255202,27.4108659 C71.893404,24.2389656 75.8784845,22.4029014 80.0765607,22.3176353 L97.1794268,21.9723074 C101.326659,21.8884624 105.333726,23.5213089 108.308795,26.5070448" id="Fill-83" fill="#FF4F5B"></path>
                    <path d="M95.868,20.9641026 C95.724,20.9750238 95.443,16.9341527 95.24,11.9384651 C95.037,6.94277747 94.988,2.88412325 95.132,2.87179487 C95.275,2.86223634 95.556,6.90173951 95.76,11.8987951 C95.963,16.8944827 96.012,20.9531369 95.868,20.9641026" id="Fill-85" fill="#1A2E35"></path>
                    <path d="M79,3.81830473 C79.0104863,3.73279295 80.2122198,3.32345789 82.4944659,2.87206785 C83.1679155,2.85804953 83.9281654,3.38513851 83.9925172,4.17717383 C83.9940138,4.80799841 83.9970069,5.46125231 84,6.1355337 C83.9850345,7.53316061 83.9670758,9.0162993 83.9506137,10.5723333 C83.8937446,13.719447 83.7979651,16.5693723 83.6902132,18.6314678 C83.5839578,20.6935633 83.4612403,21.9692308 83.3549849,21.9692308 C83.2472329,21.9692308 83.1724052,20.6935633 83.139481,18.630066 C83.1065568,16.5679705 83.1140396,13.7180452 83.1709086,10.5681278 C83.2098191,9.01349564 83.2472329,7.52895512 83.2816537,6.13273004 C83.304102,5.47246697 83.3265503,4.83603506 83.3475021,4.2192288 C83.3385228,3.76223143 82.8985357,3.406166 82.4765072,3.38794218 C80.4381996,3.68653248 78.9955208,3.93465682 79,3.81830473" id="Fill-87" fill="#1A2E35"></path>
                    <path d="M115.999406,32.0158778 C115.971659,32.0683984 115.193371,31.6686584 113.713098,31.1171923 C112.975042,30.828329 112.060796,30.5000754 111.034177,29.9967531 C110.024206,29.4861363 108.843594,28.7610604 107.983454,27.4932718 C107.05256,26.2459079 106.886081,24.4981395 105.859462,23.2551523 C104.900822,21.9260897 103.014063,21.9333842 101.186958,21.8618979 C97.4772564,21.7028772 93.3943647,21.6664046 89.1103113,21.7874937 C84.8248705,21.9056651 80.7447535,22.1624324 77.0419884,22.4629668 C75.2232079,22.6030217 73.4502091,22.9502411 72.333414,24.1159064 C71.7743229,24.690715 71.3331541,25.3866128 70.8878235,26.044579 C70.6616898,26.3728327 70.4397181,26.6967096 70.2219084,27.013292 L69.8778523,27.4728472 C69.7307961,27.6610459 69.5171483,27.7821351 69.3728667,27.8667516 C66.8021572,29.1783073 64.6920389,30.0113421 63.2533849,30.6984865 C61.810569,31.352076 61.0267315,31.7474393 61,31.6978365 C60.9906611,31.674494 61.1710131,31.5461104 61.5303297,31.3243568 C61.8910337,31.1069799 62.4307024,30.8006098 63.1354625,30.4300479 C64.5255601,29.6670405 66.6578756,28.7304234 69.1231486,27.398443 C69.2785288,27.2963196 69.3881273,27.2379634 69.4699793,27.1285455 L69.7918383,26.6777438 C70.0013241,26.3626203 70.2135845,26.0402023 70.4300069,25.7119486 C70.8628516,25.0466879 71.2970838,24.3230709 71.9144425,23.6665636 C73.1935543,22.2995694 75.1496798,21.9290075 76.9837208,21.7656102 C80.7003591,21.4256853 84.7888001,21.1470344 89.0908887,21.0274041 C93.3915901,20.906315 97.4925169,20.9632123 101.217479,21.1616234 C102.144211,21.2199796 103.061232,21.230192 103.971315,21.4286031 C104.867526,21.6065895 105.787321,22.0938638 106.321441,22.8539534 C107.456271,24.3259887 107.574193,26.0708393 108.398263,27.182525 C109.159903,28.3642382 110.246177,29.0834785 111.213142,29.6159788 C112.196754,30.1426436 113.092964,30.5102877 113.81576,30.8414592 C114.541329,31.1653361 115.096259,31.4469048 115.462512,31.6526105 C115.827378,31.8685284 116.011892,31.9925354 115.999406,32.0158778" id="Fill-89" fill="#1A2E35"></path>
                    <path d="M113.998929,33.3560568 C113.983623,33.3742447 113.805522,33.2923989 113.485497,33.1196132 C113.173821,32.932537 112.692392,32.6973927 112.052342,32.4310689 C110.775025,31.8958231 108.840961,31.293022 106.37816,30.8214341 C101.460907,29.8860531 94.4676652,29.2845512 86.8107198,29.9393179 C82.9551146,30.1965477 79.2901329,30.3537436 75.9938756,30.7577763 C72.7170982,31.1942874 69.747823,31.7724048 67.3128503,32.3167446 C66.0925812,32.598658 65.0017134,32.9000585 64.056944,33.2001599 C63.1107833,33.4872699 62.3329834,33.8133541 61.8515545,34.2602584 C60.8636514,35.1969385 61.2017647,36.0738582 61.1335855,36.0400805 C61.1168885,36.0478754 61.0069669,35.877688 61,35.5126296 C60.9986184,35.155366 61.1447168,34.5967357 61.6497997,34.0770796 C62.1479255,33.5535261 62.9772076,33.1663823 63.9205856,32.8441955 C64.8639636,32.506419 65.9576141,32.1699417 67.1834489,31.8542506 C69.6448584,31.2423556 72.568217,30.6213665 75.9034338,30.1393855 C79.2344764,29.6976778 82.9175464,29.5209947 86.7578461,29.2650641 C94.4774051,28.6051008 101.545783,29.2871495 106.489473,30.3537436 C108.967579,30.8915877 110.911383,31.5749355 112.174786,32.1946254 C112.809271,32.5025216 113.275394,32.7792385 113.564808,33.006588 C113.865353,33.219647 114.014234,33.3378688 113.998929,33.3560568" id="Fill-91" fill="#1A2E35"></path>
                    <path d="M92,1.93698877 C92,1.96613749 91.2510167,2.00131697 90.0380884,2.0344862 C88.4066998,2.06464005 86.9132817,2.09278364 85.3016032,2.12293749 C83.4579521,2.17118364 81.7553039,2.09077338 80.593925,2.22144005 C79.374932,2.3480862 79.0292474,2.8787939 79.0019565,2.85065031 C78.9898273,2.84864005 79.0292474,2.71696826 79.2581877,2.53705031 C79.4795471,2.35411697 79.9389437,2.17017851 80.5454079,2.07670159 C81.7734978,1.90180928 83.4443066,1.9631221 85.2955385,1.91387082 C86.9072171,1.90381954 88.4021513,1.89577851 90.0350561,1.88673236 C91.2479844,1.891758 91.9984838,1.90784005 92,1.93698877" id="Fill-93" fill="#FAFAFA"></path>
                    <path d="M93,21.9938663 C93.0013243,22.0088619 92.6917808,22.0302841 92.1338055,22.0559908 C91.4071091,22.0870531 90.6232866,22.1202575 89.7650674,22.1566753 C87.7683129,22.2434354 85.0076636,22.3751822 81.9666981,22.5819068 C80.4614932,22.6933024 79.0280281,22.8004136 77.6809162,22.9010981 C76.3670172,23.0221337 75.1673703,23.0681916 74.2294403,23.311334 C73.2835393,23.541623 72.6617954,23.9936322 72.3655371,24.3610236 C72.0586507,24.7316283 72.0320804,24.9929796 72,24.9844107 C72,24.9844107 71.9829254,24.7166327 72.2725412,24.3149658 C72.5528574,23.9175833 73.1905434,23.4205874 74.1683288,23.1613783 C75.1408,22.8893159 76.3444325,22.8293336 77.6530175,22.6975868 C78.9695735,22.5776223 80.4189808,22.4619422 81.9441134,22.3591155 C84.9903929,22.153462 87.7550278,22.0452797 89.7584248,21.9992219 C90.6179725,21.9885108 91.401795,21.9777997 92.1298199,21.9692308 C92.6904523,21.9703019 93,21.9777997 93,21.9938663" id="Fill-95" fill="#FAFAFA"></path>
                    <path d="M84.2353653,19.9589744 C84.2213653,19.9575339 84.2243653,19.7166272 84.2433653,19.2850027 C84.2713653,18.682736 84.2983653,18.0776014 84.3283653,17.4552591 C84.4013653,15.9123092 84.4893653,13.7785644 84.5383653,11.4211204 C84.5863653,9.06224254 84.5873653,6.92562973 84.5773653,5.37981188 C84.5743653,4.75460169 84.5713653,4.14946705 84.5673653,3.54720036 C84.5673653,3.11270795 84.5743653,2.87323524 84.5883653,2.87179487 C84.6023653,2.87036731 84.6233653,3.10984002 84.6483653,3.54146448 C84.6743653,3.97308895 84.7013653,4.59973311 84.7243653,5.374076 C84.7713653,6.92276179 84.7953653,9.06511047 84.7463653,11.4297242 C84.6973653,13.794338 84.5863653,15.9309508 84.4743653,17.4739007 C84.4203653,18.2439417 84.3683653,18.8677179 84.3243653,19.2964745 C84.2803653,19.725231 84.2503653,19.9604018 84.2353653,19.9589744" id="Fill-97" fill="#FAFAFA"></path>
                    <path d="M69.9997187,29.0078678 C70.0088951,29.0251803 69.7932506,29.1237278 69.3971378,29.2875299 C68.8373798,29.5099278 68.2791513,29.7323257 67.7117464,29.957387 C65.9284739,30.6285759 64.1023784,31.3157455 62.1004026,32.0681696 C61.005357,32.4823357 59.931723,32.8219253 59.072204,33.2893605 C58.205038,33.7474735 57.5917513,34.3653935 57.3546954,34.9952989 C57.1008161,35.6212092 57.16658,36.1805333 57.3072842,36.5254498 C57.4571647,36.8730297 57.6299861,37.0288414 57.6055159,37.0461538 C57.6055159,37.0461538 57.3898714,36.9223035 57.1925797,36.5654015 C57.0059937,36.2111629 56.8974068,35.6105554 57.1405803,34.9340396 C57.3638717,34.2495335 58.0199814,33.5583687 58.9162059,33.0736212 C59.8078421,32.572893 60.884535,32.2266447 61.9765218,31.8124786 C63.9907327,31.086689 65.8290633,30.4234904 67.6230416,29.7762726 C68.2057404,29.5791774 68.7762041,29.383414 69.3497266,29.1889823 C69.7611334,29.0558099 69.9905424,28.9905554 69.9997187,29.0078678" id="Fill-99" fill="#FAFAFA"></path>
                    <polygon id="Fill-101" fill="#E1E1E1" points="65 91.8303197 66.6785279 80.2666667 82.4422133 86.0484932 86.8891514 93.8813192 89.65483 85.2856796 98.3028681 82.3108432 102 89.9976567 95.6546455 98.9685624 83.7506183 101.374359"></polygon>
                    <path d="M86.996998,95.4391783 C86.9739582,95.4637996 86.7679549,95.2914505 86.411515,94.9351659 C86.0591409,94.5759846 85.5590408,94.0270746 84.9789789,93.2782975 C83.8174998,91.7865366 82.3226206,89.4562034 81.2045107,86.3249538 L81.7777961,86.3336437 C80.7071211,89.2157836 79.4765225,92.5338654 78.1646068,96.0662972 C77.5357546,97.7304072 76.9231659,99.3452745 76.3458145,100.870347 L76.1547194,101.374359 L75.7901477,100.997798 C72.6323341,97.7376487 69.9082116,94.8815784 67.9850624,92.824976 C67.1095484,91.8705387 66.3682076,91.0623808 65.7501977,90.388916 C65.2379,89.8095914 64.9736195,89.4793763 65.0020804,89.4475135 C65.0305414,89.4156506 65.3503886,89.6850366 65.9141871,90.207877 C66.570145,90.8364442 67.3589208,91.5939112 68.2872909,92.4875194 C70.2931124,94.4514298 73.0795781,97.2394295 76.2644974,100.470613 L75.7101859,100.598064 C76.2821161,99.068647 76.8865732,97.4523313 77.5100042,95.7838765 C78.8517362,92.2644794 80.1121511,88.9594325 81.2072212,86.0874307 L81.5094497,85.2923077 L81.7805067,86.0961206 C82.814589,89.1694377 84.2010454,91.5012192 85.2635887,93.0407744 C86.3315532,94.5832262 87.0525647,95.3812458 86.996998,95.4391783" id="Fill-103" fill="#1A2E35"></path>
                    <path d="M102.996558,89.491672 C103.053879,89.5382077 102.394693,90.6235403 101.056258,92.2928208 C99.7077914,93.938083 97.6757777,96.2303414 94.723769,98.1247947 L94.3583504,98.3589744 L94.2064509,97.9311462 C93.6633387,96.3864612 93.0414106,94.7171806 92.3793582,92.987854 C91.3834135,90.3968664 90.4505214,87.9289732 89.7282824,85.7387931 L90.3717057,85.6847516 C89.8271604,88.5549534 89.1536438,90.9027545 88.7452348,92.561527 C88.3239287,94.2187983 88.0975125,95.1825376 88.0215628,95.1675261 C87.9527781,95.1540157 88.044491,94.1617546 88.3554551,92.4684556 C88.654955,90.7721543 89.2353256,88.4003348 89.7139523,85.5556526 L89.9289044,84.2871795 L90.3588085,85.5016111 C91.122605,87.6602671 92.0741262,90.0996384 93.0715039,92.6981318 C93.7349893,94.4304607 94.3511853,96.1147528 94.8756684,97.6774515 L94.3612164,97.483803 C97.2329764,95.7019361 99.3022485,93.5237651 100.725231,91.9820825 C102.141049,90.4178825 102.923475,89.4316259 102.996558,89.491672" id="Fill-105" fill="#1A2E35"></path>
                    <path d="M94.8220757,212.94359 C94.7966991,212.9408 94.8263052,212.520099 94.9052547,211.722836 C94.9983023,210.86626 95.1237757,209.707607 95.2830845,208.246877 C95.4875073,206.743387 95.6017022,204.888163 95.7624208,202.739138 C95.8413703,201.660488 95.9245493,200.51149 96.0133675,199.294905 C96.0627109,198.072802 96.114874,196.781732 96.1698567,195.428591 C96.4222132,190.007751 96.4137543,183.542744 96.2755926,176.370131 C96.0894974,169.196139 95.6848811,161.315921 95.1096775,153.052244 C93.8873699,136.52351 92.2237909,121.603096 90.9690576,110.811073 C90.3431007,105.464718 89.8355682,101.115632 89.4760659,98.0300289 C89.3153473,96.5692988 89.1870543,95.410646 89.0940067,94.5526912 C89.0136474,93.7568071 88.9826315,93.3374851 89.0094179,93.3333333 C89.0347945,93.3305883 89.1123342,93.7443929 89.2392174,94.5347596 C89.3675103,95.3871971 89.5409173,96.5417118 89.7580285,97.9955452 C90.1894312,101.003904 90.7984703,105.359887 91.4836392,110.751761 C92.8723048,121.53137 94.6176529,136.451784 95.8427801,153.001208 C96.4193935,161.274541 96.8028626,169.168553 96.9523028,176.356338 C97.0523995,183.542744 97.0086953,190.020165 96.6886678,195.449281 C96.6153575,196.80656 96.5462767,198.09763 96.4800155,199.323871 C96.3714599,200.541836 96.2671338,201.692213 96.1712665,202.770863 C95.9710731,204.922647 95.8159937,206.776492 95.5664569,208.278602 C95.3493457,209.735194 95.1787584,210.889709 95.0504654,211.744905 C94.9249921,212.533892 94.8474524,212.947697 94.8220757,212.94359" id="Fill-107" fill="#1A2E35"></path>
                    <polygon id="Fill-109" fill="#FF4F5B" points="81.5637437 91.3230769 85 93.2244923 84.3610321 99.3641026 79 98.1720668"></polygon>
                    <polygon id="Fill-111" fill="#000000" points="81.5637437 91.3230769 85 93.2244923 84.3610321 99.3641026 79 98.1720668"></polygon>
                    <polygon id="Fill-113" fill="#FF4F5B" points="90 90.7005282 92.6100132 88.3076923 95 94.6373946 91.5744401 96.3487179"></polygon>
                    <polygon id="Fill-115" fill="#FF4F5B" points="85.6819988 100.744279 84 171.90381 96.1288203 183.794872 102 167.999221 90.353912 100.369231"></polygon>
                    <path d="M86.0537378,89.8892049 C86.8973455,89.7909786 88.0623943,89.5575134 88.9832041,89.3582138 C89.8647109,89.1674556 90.7616582,89.5902555 91.1911822,90.3945717 L92.7534706,93.3171581 C92.979462,93.7371108 93.0524531,94.2239712 92.962618,94.6937489 L92.335176,97.9736509 C92.1779646,98.79505 91.5477152,99.438503 90.7406031,99.6050605 L87.2061536,100.328233 C86.3092063,100.511874 85.4010297,100.066297 84.9869461,99.2377798 L83.2197213,95.703059 C82.9446013,95.1507144 82.9263536,94.5029907 83.1734001,93.9364104 L84.4030179,91.1077796 C84.6977893,90.4301609 85.326635,89.974619 86.0537378,89.8892049" id="Fill-117" fill="#FF4F5B"></path>
                    <path d="M91.9984664,92.3296457 C92.0267635,92.3572379 91.6617312,92.7737493 91.0476847,93.4267655 C90.4350531,94.0810957 89.5719924,94.9693028 88.608477,95.9389728 C87.6435468,96.9086428 86.7578484,97.7771413 86.104186,98.3959957 C85.4519385,99.0148501 85.0317269,99.3866883 85.002015,99.3630378 C84.9694734,99.3380734 85.3330908,98.922876 85.9471373,98.2698597 C86.5597689,97.6155296 87.4242445,96.7260085 88.3920044,95.7523968 C89.3597643,94.7814129 90.2468776,93.9116005 90.8991251,93.2914322 C91.5527875,92.6725777 91.9687545,92.3020534 91.9984664,92.3296457" id="Fill-119" fill="#1A2E35"></path>
                    <path d="M86.9969423,94.3347972 C86.9458408,94.3923808 86.2330401,93.7644457 85.4062436,92.933597 C84.5781369,92.1027484 83.9518157,91.3829538 84.0029172,91.3267413 C84.055329,91.2691577 84.7681297,91.8970928 85.5949262,92.7279414 C86.4217226,93.5587901 87.0493541,94.2772136 86.9969423,94.3347972" id="Fill-121" fill="#1A2E35"></path>
                    <path d="M92.2696579,99.363951 C92.2143835,99.3487772 92.4882046,97.4741167 92.8019935,95.2132126 C92.9312506,94.0724148 92.4762994,93.1799164 92.2645557,92.5067491 C92.0247496,91.8280641 91.9830811,91.3259475 92.0051909,91.3231886 C92.032403,91.314912 92.111488,91.7673687 92.3725535,92.4046705 C92.4975588,92.7274597 92.6650829,93.0985294 92.8079461,93.5702983 C92.9559116,94.0296522 93.0443507,94.6504007 92.977171,95.2545959 C92.8317566,96.4340181 92.6412723,97.4327334 92.5171174,98.18177 C92.3870099,98.9211504 92.2934685,99.3736071 92.2696579,99.363951" id="Fill-123" fill="#1A2E35"></path>
                    <path d="M51.331665,189.898799 C54.4267524,192.843649 58.9817096,194.158387 63.1615047,193.310565 C66.1424123,192.707123 68.9724394,191.077012 72.0077183,191.276339 C75.3284466,191.493414 78.0741982,193.830726 81.1053992,195.210997 C86.7654535,197.785863 93.3715688,196.962616 99.3755216,195.354348 C102.136225,194.615746 105.020624,193.612286 106.802644,191.369176 C108.183675,189.628479 108.712436,187.36762 109.086239,185.173659 C109.778114,181.120225 110.079875,177.001257 109.982007,172.891847 C109.922198,170.315615 109.639467,167.563266 108.009687,165.571363 C106.680308,163.945347 104.608761,163.066124 102.531777,162.795804 C100.456152,162.525484 98.349263,162.803996 96.2817936,163.146674 C79.9173859,165.852605 64.2312604,172.60924 51,182.652038" id="Fill-125" fill="#000000"></path>
                    <path d="M80,177.184741 C80,177.184741 41.9876153,194.568751 38.1227538,195.437119 C25.2909795,198.316883 10.6183428,185.921135 14.6934723,171.791425 C16.210115,166.536826 36.6630869,108.410256 36.6630869,108.410256 L56.1257643,135.915056 L47.8900415,164.062116 L69.4526858,162.598652 L80,177.184741 Z" id="Fill-127" fill="#E1E1E1"></path>
                    <path d="M67,163.058382 C67.0025348,163.102336 66.5050796,163.176065 65.5915941,163.276734 C64.5661493,163.374567 63.2620787,163.497921 61.6908327,163.646797 C58.3727682,163.933206 53.730277,164.291926 48.4452924,164.666243 L48,164.697436 L48.1284987,164.221033 C48.5114501,162.784734 48.9096687,161.293139 49.3180655,159.768932 C51.1208635,153.051082 52.7862571,146.982614 54.0228977,142.599989 C54.6259508,140.508636 55.1297673,138.768914 55.5190801,137.420523 C55.8854922,136.202576 56.1068661,135.534761 56.1501231,135.548718 C56.1908355,135.563118 56.0483419,136.256454 55.754449,137.499923 C55.4160267,138.863911 54.9770957,140.626319 54.4516506,142.743193 C53.3244248,147.162683 51.7264612,153.253836 49.9236631,159.970269 C49.5127219,161.494476 49.1106865,162.984653 48.7239182,164.419534 L48.4071245,163.974324 C53.6946536,163.629783 58.3409616,163.357552 61.6666597,163.194498 C63.2417225,163.129276 64.5496099,163.075397 65.5788714,163.031443 C66.4961738,163.008757 66.9974458,163.015846 67,163.058382" id="Fill-129" fill="#1A2E35"></path>
                    <path d="M76.9995331,178.775886 C77.072331,178.954866 68.6222908,182.697944 58.1311648,187.134392 C47.6359182,191.57225 39.0732474,195.023604 39.0004496,194.844624 C38.9290253,194.665644 47.3763185,190.925385 57.8701915,186.486118 C68.362691,182.04967 76.9267353,178.596906 76.9995331,178.775886" id="Fill-131" fill="#1A2E35"></path>
                    <path d="M72.0010341,161.524301 L69.03864,146.858962 C68.8015949,145.686716 69.6854919,144.58944 70.8600035,144.594872 L108.156438,144.770729 C109.261309,144.776181 110.115743,145.758959 109.987176,146.873956 L106.136867,180.473788 C105.984194,181.801425 104.875305,182.80056 103.560173,182.789744 L79.2396145,182.597461 C78.0704599,182.589283 77.0539784,181.776889 76.7660423,180.623727 L72.0010341,161.524301 Z" id="Fill-133" fill="#375A64"></path>
                    <path d="M69,152.635897 L69,152.635897 C70.6475007,152.635897 72.1329745,153.623819 72.7238963,155.133107 C73.3447726,156.721267 74.254302,158.576795 75.263226,159.116877 C77.1244933,160.114156 80.3405237,160.909574 82.0329563,160.096778 C83.7253889,159.282645 90.4964807,153.300305 91.6810474,153.966049 C92.865614,154.630456 93.8813459,156.125039 92.6967793,157.45519 C91.5122126,158.785342 85.2503482,162.773123 86.4349149,164.103274 C87.6194815,165.432089 100.821273,159.580759 102.852736,160.096778 C104.882838,160.612796 106.068767,161.838675 104.882838,162.638102 C103.698272,163.43753 94.728243,166.760904 94.2190155,167.925288 C94.2190155,167.925288 107.761199,164.434809 108.269065,165.266321 C108.776931,166.096496 109.622467,167.426648 108.269065,167.925288 C106.915664,168.423927 95.2361089,171.414429 94.2190155,171.913069 C93.2046452,172.411708 89.7040465,173.408988 88.9987528,173.408988 C88.6297671,173.408988 85.9801502,174.280605 83.5470231,175.108106 C80.8034578,176.03988 77.8120866,175.961007 75.1243457,174.886191 L73.7532439,174.338088 C71.6196623,173.485187 70.2771535,171.391703 70.4160337,169.133787 L70.6924326,164.601914 L69.2151282,160.861448 L69,152.635897 Z" id="Fill-135" fill="#C88976"></path>
                    <path d="M92,149.620513 C92,150.175717 91.5521503,150.625641 90.9995057,150.625641 C90.4468611,150.625641 90,150.175717 90,149.620513 C90,149.065309 90.4468611,148.615385 90.9995057,148.615385 C91.5521503,148.615385 92,149.065309 92,149.620513" id="Fill-137" fill="#FAFAFA"></path>
                    <mask id="mask-7" fill="white">
                        <use xlink:href="#path-6"></use>
                    </mask>
                    <g id="Clip-140"></g>
                    <polygon id="Fill-139" fill="#1A2E35" mask="url(#mask-7)" points="101 131.528205 117 131.528205 117 126.502564 101 126.502564"></polygon>
                    <polygon id="Fill-141" fill="#375A64" mask="url(#mask-7)" points="63.4287653 220.984615 47 220.533944 47.7734057 214.953846 64 215.657258"></polygon>
                    <polygon id="Fill-142" fill="#375A64" mask="url(#mask-7)" points="110 220.984615 69 220.671915 69.5418324 215.958974 109.956869 216.069752"></polygon>
                    <path d="M86.8957711,220.118136 L98.1056738,220.118136 L98.1056738,215.820325 L86.8957711,215.820325 L86.8957711,220.118136 Z M85,215.434737 L85,220.503725 C85,221.324979 85.6487814,221.989744 86.4492823,221.989744 L98.5507177,221.989744 C99.3512186,221.989744 100,221.324979 100,220.503725 L100,215.434737 C100,214.613483 99.3512186,213.948718 98.5507177,213.948718 L86.4492823,213.948718 C85.6487814,213.948718 85,214.613483 85,215.434737 L85,215.434737 Z" id="Fill-143" fill="#FAFAFA" mask="url(#mask-7)"></path>
                    <polygon id="Fill-144" fill="#375A64" mask="url(#mask-7)" points="114 216.112891 114 220.830699 123.860408 220.984615 124 215.958974"></polygon>
                    <path d="M25,464.225641 C25,464.225641 25.0123827,464.013373 25.0715445,463.603999 C25.1389614,463.162923 25.2297679,462.560578 25.3480914,461.787316 C25.6122557,460.159468 25.9933677,457.81625 26.4790447,454.816931 C27.4930502,448.732834 28.9473294,439.987117 30.7441967,429.195909 C34.3461864,407.533547 39.3130248,377.661651 44.7999365,344.669141 C50.2469484,311.643549 55.0679461,281.731681 58.4759402,260.066563 C60.1599873,249.257435 61.5220842,240.499313 62.4700487,234.405568 C62.943343,231.403492 63.3134481,229.060274 63.5693572,227.42967 C63.6986876,226.659165 63.7991251,226.058198 63.8720454,225.619878 C63.9449658,225.211883 64,225.005128 64,225.005128 C64,225.005128 63.9931207,225.218775 63.9449658,225.628149 C63.8885557,226.071982 63.8115078,226.675705 63.7124462,227.451724 C63.4868059,229.085084 63.162104,231.435194 62.7465956,234.446919 C61.9086996,240.521367 60.6002611,249.298786 58.9767516,260.143751 C55.6967121,281.830924 50.9541382,311.759332 45.5057504,344.786302 C40.0656177,377.803623 34.9887109,407.671383 31.2436323,429.279989 C29.3518309,440.057414 27.8205038,448.789347 26.7542158,454.863796 C26.2107528,457.853466 25.7856135,460.188414 25.4898046,461.812126 C25.342588,462.579875 25.2270162,463.178085 25.143089,463.616404 C25.0605376,464.021643 25,464.225641 25,464.225641" id="Fill-145" fill="#375A64" mask="url(#mask-7)"></path>
                    <path d="M104.046929,464.225641 C103.88017,464.222893 104.171999,410.66678 104.697753,344.616072 C105.225824,278.544754 105.78632,225.00238 105.953079,225.005128 C106.119838,225.005128 105.828009,278.551624 105.301097,344.622941 C104.775342,410.672275 104.214846,464.225641 104.046929,464.225641" id="Fill-146" fill="#375A64" mask="url(#mask-7)"></path>
                    <path d="M118,465.732831 C118,465.878574 109.717109,465.995169 99.5006808,465.995169 C89.2815295,465.995169 81,465.878574 81,465.732831 C81,465.588092 89.2815295,465.471497 99.5006808,465.471497 C109.717109,465.471497 118,465.588092 118,465.732831" id="Fill-147" fill="#375A64" mask="url(#mask-7)"></path>
                    <path d="M47,464.542764 C47,464.578949 46.4685315,464.614128 45.506957,464.647298 C44.3905991,464.675441 43.0331627,464.709616 41.4360176,464.749821 C37.8280585,464.814149 33.1640112,464.897575 28.0082186,464.989041 C22.7606517,465.068446 18.0075697,465.101616 14.5667219,465.076487 C12.846298,465.065431 11.4546175,465.043318 10.493043,465.013164 C9.53146853,464.983011 9,464.948836 9,464.913657 C9,464.877472 9.53146853,464.842293 10.493043,464.809123 C11.6094009,464.779975 12.9668373,464.746805 14.5626126,464.7066 C18.1719415,464.642272 22.834619,464.558846 27.9931512,464.466375 C33.2393483,464.387975 37.9924303,464.354805 41.4332781,464.379934 C43.1523322,464.391995 44.5440127,464.413103 45.506957,464.443257 C46.4685315,464.473411 47,464.50658 47,464.542764" id="Fill-148" fill="#375A64" mask="url(#mask-7)"></path>
                </g>
            </g>
        </g>
    </g>
</svg>