<?xml version="1.0" encoding="UTF-8"?>
<svg width="553px" height="373px" viewBox="0 0 553 373" version="1.1" xmlns="http://www.w3.org/2000/svg" xmlns:xlink="http://www.w3.org/1999/xlink">
    <!-- Generator: Sketch 64 (93537) - https://sketch.com -->
    <title>Illustration</title>
    <desc>Created with Sketch.</desc>
    <defs>
        <filter x="-0.7%" y="-1.1%" width="101.4%" height="102.2%" filterUnits="objectBoundingBox" id="filter-1">
            <feOffset dx="0" dy="2" in="SourceAlpha" result="shadowOffsetOuter1"></feOffset>
            <feColorMatrix values="0 0 0 0 0   0 0 0 0 0   0 0 0 0 0  0 0 0 0.5 0" type="matrix" in="shadowOffsetOuter1" result="shadowMatrixOuter1"></feColorMatrix>
            <feMerge>
                <feMergeNode in="shadowMatrixOuter1"></feMergeNode>
                <feMergeNode in="SourceGraphic"></feMergeNode>
            </feMerge>
        </filter>
        <polygon id="path-2" points="0 0.0020124031 587.602984 0.0020124031 587.602984 1.00620155 0 1.00620155"></polygon>
        <polygon id="path-4" points="0.541432337 0.305290698 37.6990339 0.305290698 37.6990339 24.0749729 0.541432337 24.0749729"></polygon>
    </defs>
    <g id="Landing-page" stroke="none" stroke-width="1" fill="none" fill-rule="evenodd">
        <g id="01-HOME" transform="translate(-8.000000, -1415.000000)">
            <g id="02-Qui-sommes-nous" transform="translate(-192.000000, 1137.000000)">
                <g id="Illustration" filter="url(#filter-1)" transform="translate(185.000000, 278.000000)">
                    <path d="M287.632504,370.539623 C438.203279,370.539623 568,363.590973 568,355.01938 C568,346.447786 438.203279,339.499137 287.632504,339.499137 C137.06173,339.499137 15,346.447786 15,355.01938 C15,363.590973 137.06173,370.539623 287.632504,370.539623 Z" id="Oval" fill-opacity="0.15" fill="#2C2E30"></path>
                    <path d="M158.237624,351.164341 L70.2376238,351.164341 C74.475236,347.986711 89.6858996,336.902692 103.461617,330.91843 C109.171266,328.438041 114.632872,326.835092 118.965529,327.03178 C132.707632,327.658355 151.968137,345.123545 158.237624,351.164341" id="Fill-1" fill="#A83F3F"></path>
                    <path d="M130.237624,351.164341 L42.2376238,351.164341 C48.2311699,346.668791 76.1763248,326.359318 90.9648869,327.031825 C94.8234278,327.209668 99.1166196,328.713681 103.435311,330.918467 C114.498625,336.564699 125.726527,346.818368 130.237624,351.164341" id="Fill-3" fill="#FA7269"></path>
                    <g id="Group-7" transform="translate(0.237624, 351.164341)">
                        <mask id="mask-3" fill="white">
                            <use xlink:href="#path-2"></use>
                        </mask>
                        <g id="Clip-6"></g>
                    </g>
                    <path d="M414.237624,351.164341 C414.237624,351.164341 414.471205,346.209227 415.829047,343.551485 C417.185708,340.893742 428.04254,342.721012 428.04254,342.721012 C428.04254,342.721012 430.544696,347.154049 430.206121,351.14124 L414.237624,351.164341 Z" id="Fill-8" fill="#060632"></path>
                    <path d="M385.237624,351.164341 C385.237624,351.164341 385.471205,346.209227 386.829047,343.551485 C388.185708,340.893742 399.04254,342.721012 399.04254,342.721012 C399.04254,342.721012 401.544696,347.154049 401.206121,351.14124 L385.237624,351.164341 Z" id="Fill-10" fill="#060632"></path>
                    <path d="M421.237624,138.716948 C419.910445,139.672063 407.901213,145.899225 407.901213,145.899225 L395.237624,136.928259 C395.237624,136.928259 399.084133,136.37216 399.185691,136.342348 C400.328218,136.025888 400.276285,132.981676 400.420544,129.737956 C400.442471,129.239187 400.470168,128.734685 400.507099,128.234769 L412.906406,127.787597 L412.916793,127.940094 C412.927179,128.096031 412.939874,128.259994 412.951415,128.429691 L412.976804,128.781695 C412.984883,128.902088 412.994115,129.023627 413.004502,129.149753 C413.229545,131.999043 413.707329,136.023595 414.622505,136.493699 C415.14299,136.759709 418.67213,136.718432 421.237624,138.716948" id="Fill-12" fill="#FC9290"></path>
                    <path d="M413.237624,129.194049 C412.180122,131.293072 409.827866,134.947717 406.337037,134.828145 C403.004773,134.709757 401.106754,131.701512 400.237624,129.801381 C400.260276,129.286392 400.288889,128.765484 400.32704,128.249311 L413.136285,127.787597 L413.147015,127.945053 L413.182782,128.450571 L413.20901,128.814023 C413.216164,128.938331 413.226894,129.063822 413.237624,129.194049" id="Fill-14" fill="#EA8888"></path>
                    <path d="M398.237624,100.486305 C398.237624,100.486305 404.201423,93.9072732 411.237624,100.620155 C411.237624,100.620155 407.053874,99.6589866 398.237624,100.486305" id="Fill-16" fill="#0B0754"></path>
                    <path d="M396.601535,121.750388 C396.601535,121.750388 394.67152,117.85938 393.480109,113.328269 C392.628597,110.092251 393.407189,97.8146221 406.08578,98.6482458 C406.08578,98.6482458 409.756455,98.7318372 413.354211,100.73345 C416.215715,102.325122 420.443872,105.904666 416.86611,116.831091 L416.00166,120.496517 L396.601535,121.750388 Z" id="Fill-18" fill="#9E332E"></path>
                    <path d="M414.253398,126.922095 C411.073926,129.981067 407.124435,134.056249 398.611951,126.5186 C396.946241,125.044867 397.058202,122.77794 396.961093,119.521243 C396.844562,115.666777 395.922595,113.306735 396.349876,111.084641 C396.858271,108.426864 399.118061,107.225576 403.805583,106.815184 C412.415177,106.063373 416.765672,108.014173 416.186444,112.313518 C414.896604,121.905426 417.486566,123.811392 414.253398,126.922095" id="Fill-20" fill="#FC9290"></path>
                    <path d="M406.237624,106.429217 C406.237624,106.429217 411.442704,106.321026 412.630073,108.039421 C413.819772,109.758967 413.98407,111.681083 414.582998,112.650197 C415.181926,113.619312 415.082881,114.706977 415.082881,114.706977 L416.237624,107.033475 L409.193811,105.651163 L406.237624,106.429217 Z" id="Fill-22" fill="#9E332E"></path>
                    <path d="M437.237624,149.131157 C437.237624,149.131157 435.015186,155.683149 426.0019,156.881201 C425.758329,156.913833 425.507766,156.941803 425.253706,156.967442 L388.550265,156.967442 C388.550265,156.967442 388.481505,156.94763 388.354476,156.90684 C386.928013,156.454657 378.160629,153.450204 377.237624,147.831713 C377.237624,147.831713 381.847988,138.36384 385.366363,137.189097 C386.39309,136.845298 387.813725,136.588905 389.306616,136.395446 C390.833304,136.199655 392.43924,136.069128 393.786454,135.982887 C395.641788,135.86751 397.004153,135.837209 397.004153,135.837209 C397.004153,135.837209 399.862905,141.631678 406.818076,141.546603 C413.774412,141.462692 415.386175,135.92345 415.386175,135.92345 C415.386175,135.92345 417.339403,135.978225 419.933607,136.260257 C421.364731,136.412927 422.988148,136.634357 424.589422,136.953682 C427.302498,137.494437 429.943319,138.3079 431.454856,139.535087 C435.476688,142.802925 437.237624,149.131157 437.237624,149.131157" id="Fill-24" fill="#93B3F4"></path>
                    <path d="M427.942626,200.558603 C427.557143,198.392021 426.982947,195.094441 426.531875,192.194806 C426.535327,192.155244 427.875885,175.819776 428.371834,173.062096 C428.868934,170.300926 425.4951,155.277974 425.4951,155.277974 C424.710327,152.979907 423.380125,152.277106 422.35946,152.277106 L424.076295,137.811508 C422.495242,137.492687 420.891175,137.271607 419.479274,137.119179 L418.657679,152.277106 L418.643871,152.494695 C416.764788,152.600581 414.421976,152.728575 412.240261,152.826315 C410.058545,152.926383 408.037927,152.999688 406.794028,152.999688 C404.265954,152.999688 398.461855,152.706467 394.607031,152.492368 L394.592072,152.277106 L393.661161,136.843411 C392.330959,136.928352 390.745304,137.058673 389.237895,137.255317 L390.876483,152.277106 L390.876483,152.279434 C389.797132,152.279434 388.555534,154.216791 388.38408,155.294264 L388.21723,159.993954 C387.401388,162.359508 385.711019,167.615389 385.43025,171.305094 C385.058576,176.182812 387.07344,193.150103 387.088399,193.266461 C387.014755,195.289922 386.87322,197.874229 386.599355,200.375921 C385.085042,204.524076 378.627349,223.818522 379.284395,249.761652 C379.897715,273.98036 380.260183,315.363004 383.082835,335.454501 C383.540811,338.71601 384.063226,341.41551 384.662737,343.391265 C384.96537,344.386124 385.816883,345.108706 386.836397,345.251826 C390.073299,345.705621 397.368696,346.54107 400.506638,345.386801 C402.011745,344.831774 403.088794,336.385363 403.850553,325.497766 C404.580093,315.058146 405.019658,302.372821 405.262454,292.248531 C405.264756,292.248531 405.264756,292.245041 405.264756,292.242713 C405.461524,284.170974 405.535169,277.728244 405.535169,275.34291 C405.535169,269.946236 406.79748,254.113433 407.214031,244.80132 C407.226688,244.538352 407.606417,244.536025 407.623678,244.79783 L407.623678,244.798993 C408.256559,255.855309 410.465891,272.622465 410.500412,276.347077 C410.582111,285.383422 410.063148,343.436645 413.967452,345.386801 C416.953502,346.878508 423.991144,345.751001 427.35232,345.290224 C428.568603,345.123832 429.567405,344.247658 429.910312,343.056155 C434.110343,328.449763 434.483168,277.693337 435.190845,249.761652 C435.838685,224.182722 429.570857,205.066303 427.942626,200.558603" id="Fill-26" fill="#0B0754"></path>
                    <path d="M394.808344,210.745182 C393.576478,211.752081 389.550628,211.330887 387.990796,209.990299 C386.427537,208.646211 383.307875,209.066239 382.567383,208.562206 C382.514818,208.52837 367.981533,190.943218 366.406846,183.543733 C364.817304,176.076578 374.876787,155.526731 377.724479,149.924031 C379.831679,154.469662 386.851491,156.923323 388.103927,157.328183 C388.229628,157.369019 388.295906,157.388853 388.295906,157.388853 L388.685578,157.388853 C386.316692,163.928448 379.235172,175.698553 376.505182,180.133343 C375.828684,181.235916 375.741836,182.615006 376.278921,183.798083 C379.784827,191.471753 383.21417,197.944843 384.714579,202.429804 C385.012833,202.928003 385.652764,203.818228 386.427537,203.698054 C387.498278,203.528876 390.948191,202.773993 392.673718,205.373497 C394.400389,207.976501 396.040211,209.738283 394.808344,210.745182" id="Fill-28" fill="#FC9290"></path>
                    <path d="M417.326662,100.514012 C417.326662,100.514012 416.353253,99.1813578 414.607465,97.6864157 C414.33002,97.4459456 414.03259,97.2031064 413.71635,96.9626363 C410.506922,94.5010756 405.368311,92.098744 399.175173,94.7024545 C397.496395,95.4072806 396.100941,96.3656071 394.941785,97.4743756 C394.669042,97.7361681 394.408056,98.0038836 394.163528,98.2822603 C388.793321,104.28572 389.247108,113.700775 389.247108,113.700775 L420.235132,113.366723 C420.336235,104.650571 417.326662,100.514012 417.326662,100.514012" id="Fill-30" fill="#E75755"></path>
                    <path d="M411.529679,112.444572 C411.442647,111.160376 410.849886,100.629739 414.607568,97.028432 C414.331182,96.7910468 414.397044,96.832734 414.08067,96.5953488 C410.073651,100.736272 409.816082,111.107109 409.832548,112.461942 L399.922615,112.566159 C399.628587,105.091422 395.438094,97.6479494 394.934718,96.8176803 C394.660683,97.0735931 394.607758,97.1233861 394.363126,97.3943526 C395.089965,98.6542309 397.826781,105.860318 398.087878,112.585845 L389.237624,112.679641 C389.237624,112.679641 397.493941,114.781368 403.713229,114.704942 C409.932517,114.628515 420.237624,112.353092 420.237624,112.353092 L411.529679,112.444572 Z" id="Fill-32" fill="#A83F3F"></path>
                    <path d="M396.603713,153.857647 C393.490841,159.866404 384.648714,160.992248 384.648714,160.992248 C387.513342,153.981838 381.74252,151.771934 378.172416,144.593227 C374.603467,137.415681 380.912344,132.658119 380.912344,132.658119 C377.009708,133.409069 376.262665,138.666877 376.262665,138.666877 C375.931287,135.162832 378.837481,129.238803 388.053707,128.070015 C394.800187,127.213445 396.429364,124.926937 396.818473,123.762791 C396.969729,125.272815 397.333437,126.45437 398.34258,127.34576 C399.054984,127.977162 399.737368,128.524995 400.387423,129.003189 C400.372413,129.275945 400.359712,129.548701 400.347011,129.819135 C400.307754,130.743024 400.283506,131.651824 400.239631,132.48518 C399.034201,133.930207 399.069994,135.468087 399.274363,136.433759 C399.401372,137.034983 399.59304,137.415681 399.59304,137.415681 C400.559462,138.765533 401.050178,140.092172 401.192197,141.418811 C401.620564,145.390603 398.937212,149.35311 396.603713,153.857647" id="Fill-34" fill="#9E332E"></path>
                    <path d="M428.237624,200.333318 L426.873113,192.184496 C420.230931,194.687799 413.950667,195.77883 408.404778,196.079845 C407.753561,194.857938 406.562396,193.960842 405.117068,193.747871 L400.217712,193.028052 C398.285143,192.743694 396.463843,193.766907 395.613513,195.437362 C390.909756,194.697317 387.733315,193.613425 386.727208,193.239833 L386.724865,193.283855 L386.237624,200.439209 L386.237624,200.457055 C389.066202,201.220896 391.781169,201.815787 394.374326,202.267905 L394.230262,203.263753 C393.869515,205.737311 395.550265,208.04192 397.985302,208.413132 L403.415236,209.238842 C406.004879,209.633849 408.370812,207.690934 408.533616,205.036529 L408.628488,203.501709 C418.977689,203.448169 425.855293,201.236363 428.237624,200.333318" id="Fill-36" fill="#060632"></path>
                    <path d="M448.068302,183.354605 C446.493745,190.804505 431.960512,208.50947 431.909093,208.543536 C431.783403,208.630464 431.586869,208.691548 431.340059,208.737361 C431.330917,208.73971 431.322919,208.73971 431.312635,208.742059 C430.112864,208.954679 427.770452,208.866577 426.487268,209.98136 C424.926423,211.331082 420.899761,211.755146 419.666853,210.741386 C418.433944,209.727626 420.078203,207.953841 421.803589,205.333102 C423.528974,202.715887 426.979746,203.475913 428.048114,203.646243 C428.682279,203.744917 429.233031,203.157571 429.571252,202.665375 C429.576966,202.655977 429.582679,202.647755 429.589535,202.638357 C429.654665,202.540858 429.714082,202.450406 429.760931,202.369353 C431.229222,197.952509 434.539449,191.627964 437.960512,184.124029 C438.646096,182.623946 438.544401,180.866606 437.689707,179.460499 C435.404428,175.707357 430.765311,167.909748 427.780736,161.653336 C427.433374,159.844309 427.086011,158.144529 426.817491,156.857066 C433.373957,155.772825 436.087726,151.671973 436.964131,149.924031 C440.062969,156.104088 449.621149,176.011602 448.068302,183.354605" id="Fill-38" fill="#FC9290"></path>
                    <path d="M547.432508,214.981404 C545.221967,215.49708 535.234319,215.620192 528.220101,214.026706 C526.757513,213.695697 525.422457,213.289195 524.317186,212.796748 C522.994768,212.207901 521.998645,211.497104 521.491967,210.639966 C520.698057,209.304317 519.249256,204.734077 517.543095,198.742241 C512.846269,182.233626 506.237624,154.955039 506.237624,154.955039 C506.237624,154.955039 519.507765,157.693699 522.316899,160.031664 C525.127182,162.368469 527.605424,199.448393 530.247963,200.45071 C530.636301,200.598212 531.308425,200.908315 532.167825,201.336884 C532.210335,201.35779 532.252845,201.379857 532.294207,201.399601 C532.807779,201.655117 533.384541,201.951282 534.009559,202.276483 C539.488806,205.121995 548.557311,210.250886 549.497135,211.391413 C550.735682,212.894308 550.654108,214.229957 547.432508,214.981404" id="Fill-40" fill="#6D89CF"></path>
                    <path d="M522.236952,176.126209 C522.236952,175.493729 522.174262,174.860085 522.059329,174.224111 C520.333017,164.704307 506.611915,154.955039 506.342578,154.955039 L506.340256,155.154217 C506.340256,156.609036 504.053212,159.293871 500.532093,159.525663 C496.355045,159.799388 491.199328,157.409245 491.199328,154.994642 C491.173788,154.994642 488.851916,155.309134 488.064801,155.397658 C484.717823,155.779708 478.036636,157.593282 475.173768,159.764445 C472.451373,161.827283 476.298715,174.835625 478.678633,184.045596 C479.688648,187.942974 480.432808,191.158951 480.310909,192.583485 C480.24938,193.280028 479.625957,202.734605 479.069869,211.287636 C478.610138,218.342752 478.193362,224.781695 478.181753,225.187041 C478.151569,225.988414 482.123131,228.795551 488.791547,230.916628 C490.401765,231.429135 492.173354,231.900873 494.080771,232.293407 C497.504372,232.999268 501.374932,233.453535 505.587969,233.43876 C506.966,233.433733 508.270892,233.362681 509.501484,233.240379 C519.028125,232.302725 522.291516,221.410801 522.236952,176.126209" id="Fill-42" fill="#6D89CF"></path>
                    <path d="M491.266563,155.568247 C491.187615,151.920315 491.247112,147.565776 491.737964,143.886822 L506.235844,146.265159 C506.235844,146.265159 506.251862,150.710466 506.187788,155.639483 C506.196942,155.640632 506.58253,160.212324 500.972625,160.882164 C495.363865,161.550856 491.115532,159.097837 491.266563,155.568247" id="Fill-44" fill="#FC9290"></path>
                    <path d="M503.303136,350.15814 C501.47841,349.026108 502.550565,340.641459 502.550565,340.641459 C502.550565,340.641459 511.098027,333.80542 512.250365,339.068617 C513.401558,344.330659 520.317877,346.718195 524.257132,347.377104 C526.976467,347.831763 527.979894,349.248822 528.237624,350.147754 L503.303136,350.15814 Z" id="Fill-46" fill="#060632"></path>
                    <path d="M490.237624,205.314132 C490.237624,219.431911 483.377622,215.626814 479.237624,211.814747 C479.794438,203.283198 480.187004,173.066667 480.187004,173.066667 C480.187004,173.066667 490.237624,185.09658 490.237624,205.314132" id="Fill-48" fill="#3662C1"></path>
                    <path d="M534.237624,202.439813 C533.958877,204.440942 530.764557,210.268174 528.260579,214.32093 C526.750602,213.986234 525.371101,213.575204 524.230018,213.077271 C522.865938,212.481864 521.83754,211.761975 521.313259,210.896463 C520.49481,209.545935 518.997881,204.924783 517.237624,198.866201 C518.540024,191.407767 519.778372,184.043283 519.778372,184.043283 L520.162687,179.103876 C520.162687,179.483198 526.004509,201.185584 528.648453,201.692913 C530.243834,201.999424 531.374241,201.627148 532.335028,201.489747 C532.380102,201.510885 532.42399,201.533198 532.466692,201.553163 C532.995718,201.811524 533.592354,202.110989 534.237624,202.439813" id="Fill-50" fill="#3662C1"></path>
                    <path d="M477.304236,350.15814 C475.47727,349.026108 476.551214,340.641459 476.551214,340.641459 C476.551214,340.641459 485.103799,333.80542 486.256828,339.068617 C487.408711,344.330659 494.329176,346.718195 498.269646,347.377104 C500.990611,347.831763 501.97974,349.248822 502.237624,350.147754 L477.304236,350.15814 Z" id="Fill-52" fill="#060632"></path>
                    <path d="M489.813999,138.930238 C489.813999,138.930238 479.91502,123.534063 498.92415,122.514655 C498.92415,122.514655 506.054037,123.342419 507.667975,121.750388 C507.667975,121.750388 513.197968,130.041879 508.03313,138.930238 C502.868293,147.818597 489.813999,138.930238 489.813999,138.930238" id="Fill-54" fill="#060632"></path>
                    <path d="M505.325445,147.530455 C503.902149,148.664562 499.727072,149.792812 498.521144,149.924031 C498.521144,149.924031 492.331947,148.525142 491.206953,147.837414 C489.463387,146.767744 489.576696,144.601458 489.487668,141.589278 C489.38014,138.025275 489.025183,135.225154 489.418295,133.17017 C489.885404,130.710985 491.424321,129.312096 495.73005,128.932498 C503.636221,128.23774 506.930266,130.243517 507.067855,132.928821 C507.103697,133.650526 507.136071,134.338254 507.160351,134.989663 C507.474841,143.365422 506.822738,146.335424 505.325445,147.530455" id="Fill-56" fill="#FC9290"></path>
                    <path d="M507.231344,136.843411 C507.15477,141.829108 505.857653,144.780564 504.919042,145.152505 C503.837725,145.582224 502.566133,145.937313 501.240012,146.173237 C500.79217,146.227403 500.364052,146.211755 500.369853,145.948146 C500.384936,145.163338 501.39664,144.193162 500.643663,143.497427 C499.854719,142.766785 495.617627,142.520028 495.276525,144.114922 C495.110614,144.891304 496.476183,146.263514 495.539893,146.29481 C495.255641,146.245459 494.97719,146.187681 494.711502,146.11546 C493.16842,145.697778 491.957159,144.940655 491.447827,144.621676 C489.698228,143.521501 489.813089,141.83633 489.425578,138.766913 C489.174972,136.780819 489.174972,137.856921 489.425578,140.803562 C489.687786,143.887424 489.174972,145.867499 491.151973,147.222857 C492.250693,147.977573 498.583127,150.930233 498.583127,150.930233 C498.491471,149.366635 503.889935,148.072665 505.319315,146.90749 C506.644277,145.826573 507.310238,143.324095 507.231344,136.843411" id="Fill-58" fill="#060632"></path>
                    <path d="M478.296456,225.152728 C478.26651,225.95594 482.207786,228.769518 488.823416,230.894295 C489.355523,231.067079 489.907209,231.232858 490.47502,231.3928 C490.481931,231.393967 490.48769,231.400972 490.488841,231.409144 C491.105026,238.748963 492.776209,249.118339 494.283845,259.125803 L494.283845,259.128138 C494.674287,261.722233 495.050908,264.290644 495.399887,266.776165 C496.317829,273.3548 497.006573,279.34737 497.081437,283.661134 L497.081437,283.706665 C497.113686,285.686676 495.466689,290.62503 495.3423,291.765638 C495.263981,292.463779 495.202939,293.201614 495.159172,293.974472 C494.978348,297.064737 495.050908,300.716551 495.297382,304.613531 C496.37772,321.628087 500.813095,343.396539 502.395594,344.323502 C505.539861,346.166921 511.265192,344.321167 514.173351,343.890375 C515.379229,343.709418 516.342089,342.669212 516.279895,341.437542 C514.859792,313.201364 518.94158,273.877822 521.992556,249.704404 C522.073178,249.073976 522.151497,248.457557 522.229816,247.850478 C522.593768,244.999541 522.835634,242.337734 522.986513,239.937437 C523.125874,237.832507 523.192676,235.921376 523.222621,234.26475 C523.230683,233.747566 523.23529,233.25373 523.237624,232.789081 C523.244504,231.274886 522.057054,221.367824 522.00177,175.97933 C522.00177,174.930951 521.154085,174.072868 520.119817,174.072868 L492.73705,174.072868 C490.090337,174.072868 487.963062,176.267692 487.995311,178.949347 C488.037925,182.412032 487.914688,187.246482 487.172964,191.860283 C486.162882,198.16223 483.9976,204.049728 479.531128,205.467024 C479.525369,205.468192 479.521914,205.471694 479.51961,205.476364 C479.50003,205.521895 479.377945,205.797415 479.182149,206.256227 C479.180997,206.258562 479.180997,206.260897 479.180997,206.263232 C479.13723,207.402672 479.090009,208.563127 479.039332,209.745764 C479.028966,209.982758 479.018601,210.22092 479.005931,210.461417 C479.001324,210.602679 478.993262,210.740439 478.987503,210.880535 C478.977138,211.121031 478.964468,211.361528 478.951799,211.60436 C478.934523,212.001296 478.914943,212.402902 478.89306,212.80801 C478.875784,213.125559 478.857356,213.441941 478.841232,213.762992 C478.807831,214.377076 478.770975,214.999332 478.730664,215.62509 C478.720298,215.827061 478.707629,216.026697 478.693808,216.229834 C478.64198,217.041219 478.586696,217.864278 478.524501,218.693174 C478.507225,218.94768 478.487646,219.202187 478.466914,219.459028 C478.461155,219.582778 478.45079,219.705362 478.440424,219.829112 C478.416237,220.153666 478.390899,220.479387 478.364409,220.806276 C478.335615,221.150677 478.306821,221.49858 478.275724,221.848818 C478.16746,223.122516 478.327553,224.258454 478.296456,225.152728" id="Fill-60" fill="#0B0754"></path>
                    <path d="M495.241479,304.593281 C496.333795,321.615495 500.818349,343.396406 502.418395,344.323849 C505.59869,346.167056 511.386338,344.320345 514.327907,343.890497 C515.547156,343.708279 516.519527,342.667533 516.457808,341.436392 C515.020794,313.185568 519.147841,273.84163 522.23381,249.654505 C522.314162,249.024918 522.393349,248.407011 522.472536,247.800785 C522.840524,244.94837 523.085072,242.285182 523.237624,239.88364 C521.770333,230.293825 513.491784,229.779876 505.98298,249.617127 C506.912265,256.198006 494.992272,300.693112 495.241479,304.593281" id="Fill-62" fill="#060632"></path>
                    <path d="M478.104569,282.940759 C477.879841,284.906668 475.607201,289.580515 475.33407,290.693558 C471.577069,305.987979 473.652639,342.251707 475.515005,343.701929 C478.397293,345.945516 484.315144,344.879141 487.255055,344.839473 C488.474351,344.821972 489.564572,343.917771 489.662531,342.691557 C491.972049,313.796779 501.544333,274.111086 507.69959,250.766355 C510.798539,239.00707 511.237624,230.359404 511.237624,230.359404 C511.237624,230.359404 482.470065,212.516884 479.359592,222.264759 C476.605226,230.889091 479.840165,267.848179 478.104569,282.940759" id="Fill-64" fill="#0B0754"></path>
                    <path d="M507.265577,118.471693 C507.068161,118.249119 506.859267,118.034576 506.6366,117.82577 C505.702318,116.937768 504.576358,116.172526 503.224289,115.606912 C498.228059,113.524582 494.085767,115.447439 491.496405,117.416187 C491.240453,117.608932 491.000569,117.802824 490.777902,117.994421 C489.369592,119.191044 488.58452,120.258023 488.58452,120.258023 C488.58452,120.258023 486.15814,123.565658 486.239631,130.54003 L511.229964,130.806202 C511.229964,130.806202 511.596102,123.275394 507.265577,118.471693" id="Fill-66" fill="#E75755"></path>
                    <path d="M492.808691,130.79002 L494.233749,130.806202 C494.264754,130.405126 494.194396,121.271693 490.680048,117.725581 C490.414116,117.919762 490.468972,117.885087 490.237624,118.079268 C493.575479,121.202343 492.814653,130.696397 492.808691,130.79002" id="Fill-68" fill="#A83F3F"></path>
                    <path d="M504.116419,131.02985 C504.402323,125.309097 506.529958,119.295033 507.104064,118.225866 C506.906572,117.99169 506.865236,117.946748 506.642483,117.725581 C506.245202,118.43284 502.984282,124.658608 502.638671,131.013292 L486.237624,130.83352 C486.237624,130.83352 494.548376,132.753053 499.563762,132.81692 C504.577999,132.880786 511.237624,131.107908 511.237624,131.107908 L504.116419,131.02985 Z" id="Fill-70" fill="#A83F3F"></path>
                    <path d="M487.100354,155.96124 C487.100354,155.96124 495.73078,166.045551 496.237624,174.844907 L491.840283,175.07907 C491.840283,175.07907 490.733908,165.278343 484.237624,156.564887 C484.237624,156.564887 485.253658,156.31778 485.591554,156.250708 C486.044429,156.160102 487.100354,155.96124 487.100354,155.96124" id="Fill-72" fill="#0B0754"></path>
                    <path d="M508.237624,155.96124 C514.265491,165.298862 514.911743,175.07907 514.911743,175.07907 L519.237624,175.002964 C518.883043,168.120639 514.658961,160.549847 512.326737,156.962327 C512.326737,156.962327 509.332248,156.188387 508.237624,155.96124" id="Fill-74" fill="#0B0754"></path>
                    <path d="M498.246373,251.141015 L494.735005,251.141015 C493.102994,250.395957 484.310704,246.566058 475.860536,246.51938 C469.762453,246.485857 462.814845,251.067788 462.39644,251.116606 C461.336557,251.240976 465.928613,251.283982 465.928613,251.283982 C465.928613,251.283982 472.810339,248.221226 475.902146,248.149161 C478.849475,248.080583 485.391392,250.234392 488.005847,251.141015 L468.32693,251.141015 C466.681049,251.141015 465.334523,252.495137 465.334523,254.149142 L465.334523,276.715904 C465.334523,278.369909 466.681049,279.724031 468.32693,279.724031 L498.246373,279.724031 C499.891099,279.724031 501.237624,278.369909 501.237624,276.715904 L501.237624,254.149142 C501.237624,252.495137 499.891099,251.141015 498.246373,251.141015" id="Fill-76" fill="#E75755"></path>
                    <path d="M489.237237,251.550388 L459.23801,251.550388 C457.58774,251.550388 456.237624,252.885116 456.237624,254.515431 L456.237624,276.758987 C456.237624,278.389303 457.58774,279.724031 459.23801,279.724031 L489.237237,279.724031 C490.887508,279.724031 492.237624,278.389303 492.237624,276.758987 L492.237624,254.515431 C492.237624,252.885116 490.887508,251.550388 489.237237,251.550388" id="Fill-78" fill="#A83F3F"></path>
                    <path d="M479.880049,208.919245 C480.09079,219.133921 478.850137,239.475969 478.850137,239.475969 L472.98451,239.475969 C470.215417,225.162617 469.237624,215.954858 469.237624,210.933078 C469.237624,209.943623 469.242156,209.021682 469.250087,208.17075 C469.286343,203.882332 469.399645,201.391232 469.399645,201.391232 C468.299486,175.404629 473.351607,161.508013 474.93783,159.594289 C476.52632,157.681729 483.784424,155.96124 483.784424,155.96124 C483.784424,155.96124 486.181888,163.141197 487.160814,168.916127 C488.137474,174.692221 479.47103,198.958335 479.82793,207.252303 C479.850591,207.769148 479.866453,208.326735 479.880049,208.919245" id="Fill-80" fill="#6D89CF"></path>
                    <path d="M558.311009,216.333333 L553.165468,216.333333 C552.655461,216.333333 552.237624,216.733657 552.237624,217.218014 L552.237624,350.281994 C552.237624,350.767518 552.655461,351.164341 553.165468,351.164341 L558.311009,351.164341 C558.822245,351.164341 559.237624,350.767518 559.237624,350.281994 L559.237624,217.218014 C559.237624,216.733657 558.822245,216.333333 558.311009,216.333333" id="Fill-82" fill="#FA7F77"></path>
                    <path d="M558.311009,216.333333 L553.165468,216.333333 C552.655461,216.333333 552.237624,216.735486 552.237624,217.222055 L552.237624,221.364341 L559.237624,221.364341 L559.237624,217.222055 C559.237624,216.735486 558.822245,216.333333 558.311009,216.333333" id="Fill-84" fill="#0B0754"></path>
                    <path d="M552.237624,350.364248 C552.237624,350.804511 552.65669,351.164341 553.165468,351.164341 L558.311009,351.164341 C558.822245,351.164341 559.237624,350.804511 559.237624,350.364248 L559.237624,347.139535 L552.237624,347.139535 L552.237624,350.364248 Z" id="Fill-86" fill="#0B0754"></path>
                    <path d="M555.737124,225.389147 C555.500124,225.389147 555.306124,225.614791 555.306124,225.891612 L555.306124,342.612264 C555.306124,342.889085 555.500124,343.114729 555.737124,343.114729 C555.974124,343.114729 556.169124,342.889085 556.169124,342.612264 L556.169124,225.891612 C556.169124,225.614791 555.974124,225.389147 555.737124,225.389147" id="Fill-88" fill="#A83F3F"></path>
                    <path d="M479.011772,240.298018 C479.011772,240.298018 480.273436,219.7516 480.059126,209.4343 C475.289,207.86466 471.44179,208.209158 469.249146,208.678286 C469.242233,209.537767 469.237624,210.46897 469.237624,211.468366 C469.237624,216.540598 470.230824,225.840865 473.046811,240.298018 C471.804735,245.624214 471.886541,251.372508 474.042315,252.38719 C476.195785,253.401871 483.319864,249.59711 483.236905,247.906366 C483.155099,246.215622 479.011772,240.298018 479.011772,240.298018" id="Fill-90" fill="#FC9290"></path>
                    <path d="M560.915984,216.846737 C560.331749,214.69455 559.899069,213.502766 558.425178,212.457484 C556.283756,210.938977 553.74089,211.349416 551.845887,211.684278 C550.397448,211.940075 548.880752,211.451735 548.244457,211.206402 C544.88829,208.958871 536.464901,204.323122 532.269981,202.246512 C529.40781,203.913846 525.891991,207.214797 524.237624,213.655082 C530.693126,216.517688 544.823504,216.467692 547.513296,215.843313 C547.513296,215.843313 550.002945,217.661801 551.899105,217.829232 C552.616383,217.892019 553.519922,217.68273 554.366773,217.397864 C555.697208,216.950219 557.127136,217.396702 558.083893,218.58616 C559.004785,219.72911 560.206804,220.35814 560.705428,220.35814 C561.47708,220.35814 561.282721,218.201301 560.915984,216.846737" id="Fill-92" fill="#FC9290"></path>
                    <path d="M52.2371409,242.494574 L22.2369477,242.494574 C20.5877831,242.494574 19.2376238,243.829302 19.2376238,245.460763 L19.2376238,267.702028 C19.2376238,269.333489 20.5877831,270.668217 22.2369477,270.668217 L52.2371409,270.668217 C53.8874644,270.668217 55.2376238,269.333489 55.2376238,267.702028 L55.2376238,245.460763 C55.2376238,243.829302 53.8874644,242.494574 52.2371409,242.494574" id="Fill-94" fill="#E75755"></path>
                    <path d="M61.2371409,242.494574 L31.2369477,242.494574 C29.5866242,242.494574 28.2376238,243.829302 28.2376238,245.460763 L28.2376238,267.702028 C28.2376238,269.333489 29.5866242,270.668217 31.2369477,270.668217 L61.2371409,270.668217 C62.8874644,270.668217 64.2376238,269.333489 64.2376238,267.702028 L64.2376238,245.460763 C64.2376238,243.829302 62.8874644,242.494574 61.2371409,242.494574" id="Fill-96" fill="#A83F3F"></path>
                    <path d="M25.2376238,242.31685 C25.2376238,242.31685 32.4019594,237.347169 33.470724,237.465651 C34.5394886,237.584134 36.2376238,237.938484 36.2376238,237.938484 L29.8262019,242.494574 L25.2376238,242.31685 Z" id="Fill-98" fill="#E75755"></path>
                    <path d="M79.9960762,196.532661 C79.5522049,196.651765 79.0709548,196.763862 78.5581666,196.873624 C78.2019014,196.950691 77.8316193,197.023087 77.4484882,197.094316 C77.4403116,196.921499 77.4368074,196.744012 77.4286308,196.57353 C77.3305118,194.194964 77.219544,191.93083 77.0630209,189.777626 C76.9321957,187.973558 76.7710003,186.247726 76.5595774,184.601295 C79.0709548,191.223215 80.8230787,196.310802 79.9960762,196.532661 M81.6968044,159.581391 C78.8163128,157.406001 72.0939977,155.586754 68.7264157,155.203755 C67.9344558,155.116179 65.5679205,155.10567 65.5433908,155.10567 C65.5433908,157.526273 60.3851382,159.616422 56.1823772,159.342017 C52.6395828,159.110816 50.3384601,156.418143 50.3384601,154.959709 L50.336124,154.955039 C50.0651288,154.955039 36.2595611,164.533527 34.5226223,174.076985 C34.4081502,174.714539 34.3439057,175.349758 34.3439057,175.983808 C34.2890058,221.380916 31.5381714,228.342631 32.4072248,228.327451 C32.4072248,228.327451 37.5724859,232.299902 47.1577713,233.239886 C48.3959389,233.362492 49.7088636,233.433721 51.0953776,233.43876 C55.3331811,233.453571 59.2287365,232.998176 62.6734119,232.290561 C64.5925716,231.897052 66.3750655,231.422974 67.9951961,230.909194 C74.7046623,228.784014 78.7018408,225.969903 78.6703025,225.166538 C78.6375962,224.272095 78.8022959,223.137108 78.691328,221.862001 C78.2719864,217.055825 78.0430422,212.856844 77.8678298,208.62867 C85.1484884,209.26856 89.3489133,208.5481 89.3489133,208.5481 C95.3131428,195.719955 85.5923598,162.523948 81.6968044,159.581391" id="Fill-100" fill="#93B3F4"></path>
                    <path d="M50.2376238,154.955039 C50.2376238,154.955039 39.6620854,156.575188 35.1080369,160.412938 C30.5563047,164.25186 30.0941823,188.689989 28.5769383,195.598174 C28.2781223,196.954742 28.0117359,199.144228 27.7789374,201.812846 C26.9647217,211.188157 27.9410856,224.18918 28.7483521,228.99574 C28.834059,230.153157 28.7900474,231.856481 28.1275561,233.531689 C26.9612471,236.480291 26.7122338,237.322581 28.793522,239.007161 C30.8759684,240.691741 33.1240376,243.051091 34.7061409,242.376322 C35.9280436,241.857358 35.7103017,233.668752 35.5469952,229.952835 C37.3746373,222.010238 40.3326841,207.102054 43.1181588,192.65543 C46.8336694,173.394047 50.2376238,154.955039 50.2376238,154.955039" id="Fill-102" fill="#FC9290"></path>
                    <path d="M50.2376238,154.955039 C50.2376238,154.955039 48.3144675,165.42619 45.7956434,178.775464 C44.9980157,183.011258 44.1391194,187.535673 43.263204,192.108576 C39.697139,199.217875 36.6382426,204.051691 35.6931163,203.143114 C33.7631524,201.29017 30.3786243,201.061583 28.2376238,201.130852 C28.4634103,198.500942 28.7266387,196.34437 29.0182323,195.00748 C29.1350967,194.469491 29.246288,193.824136 29.3540755,193.089885 C30.6010069,184.522475 31.3090008,163.815687 35.4162726,160.33377 C37.577696,158.503916 41.1210688,157.184343 44.2026573,156.306937 L44.2049265,156.306937 C45.7786243,155.861307 47.2331885,155.53228 48.3201405,155.30831 C49.4944572,155.069332 50.2376238,154.955039 50.2376238,154.955039" id="Fill-104" fill="#93B3F4"></path>
                    <path d="M35.8159034,203.23635 C33.8564609,201.3898 30.4150385,201.160708 28.2376238,201.229781 C28.4682821,198.608462 28.7335392,196.455688 29.0310884,195.123731 C29.1510308,194.587265 29.2629001,193.943735 29.3724628,193.211562 L40.2376238,167.029457 C40.2376238,167.029457 36.7765954,204.143508 35.8159034,203.23635" id="Fill-106" fill="#6D89CF"></path>
                    <path d="M65.208681,154.562046 C65.2876386,150.915263 65.2281343,146.559574 64.7372237,142.88062 L50.2376238,145.260106 C50.2376238,145.260106 50.2376238,149.701966 50.3017053,154.632132 C50.2925508,154.633281 50.2868293,154.633281 50.2868293,154.633281 C50.2868293,154.633281 49.8908967,159.206122 55.5014672,159.875963 C61.1108933,160.544655 65.3597304,158.091636 65.208681,154.562046" id="Fill-108" fill="#FC9290"></path>
                    <path d="M53.1630756,350.122622 C54.999797,348.999805 53.9252054,340.616488 53.9252054,340.616488 C53.9252054,340.616488 45.3215547,333.829175 44.1616415,339.05371 C43.0017282,344.279391 36.0399428,346.64991 32.075945,347.304122 C29.3387342,347.755541 28.4958947,349.265615 28.2376238,350.15814 L53.1630756,350.122622 Z" id="Fill-110" fill="#060632"></path>
                    <path d="M78.2376238,196.472268 C78.2376238,196.472268 75.5413442,200.234109 74.9902714,200.234109 C74.4380624,200.234109 67.636575,197.514748 69.5886223,191.433418 C71.5383972,185.352088 76.2912576,184.134884 76.2912576,184.134884 C76.4980519,185.789484 76.6537157,187.522651 76.78211,189.334386 C76.9343651,191.496741 77.041171,193.770497 77.1366145,196.157999 C77.1445681,196.330378 77.1491131,196.507447 77.1570667,196.682171 C77.5297509,196.61064 77.8888004,196.537936 78.2353513,196.459369 L78.2376238,196.472268 Z" id="Fill-112" fill="#6D89CF"></path>
                    <path d="M79.1630756,350.122622 C80.999797,348.999805 79.9252054,340.616488 79.9252054,340.616488 C79.9252054,340.616488 71.3215547,333.829175 70.1616415,339.05371 C69.0017282,344.279391 62.0410958,346.64991 58.077098,347.304122 C55.3398872,347.755541 54.4970477,349.265615 54.2376238,350.15814 L79.1630756,350.122622 Z" id="Fill-114" fill="#060632"></path>
                    <path d="M66.6612485,137.924037 C66.6612485,137.924037 76.5602279,122.527861 57.5510977,121.508453 C57.5510977,121.508453 50.4212109,122.336217 48.8072723,120.744186 C48.8072723,120.744186 43.2772796,129.034523 48.4421172,137.924037 C53.6069548,146.812396 66.6612485,137.924037 66.6612485,137.924037" id="Fill-116" fill="#9E332E"></path>
                    <path d="M50.1501587,146.524253 C51.5734229,147.659532 55.7472519,148.78661 56.9543094,148.917829 C56.9543094,148.917829 63.1433694,147.520112 64.2683378,146.832384 C66.0107091,145.761542 65.8985591,143.595256 65.9875854,140.584247 C66.0951106,137.019072 66.4500595,134.218951 66.0569565,132.163966 C65.5898576,129.705952 64.0509749,128.307063 59.7453408,127.926294 C51.8393455,127.231535 48.5453735,129.237313 48.4077875,131.923789 C48.3719457,132.644322 48.3395725,133.33205 48.3152926,133.983459 C47.999654,142.359219 48.6528987,145.329222 50.1501587,146.524253" id="Fill-118" fill="#FC9290"></path>
                    <path d="M48.2439132,136.843411 C48.3204871,141.829534 49.6176029,144.780038 50.5562135,145.153215 C51.63753,145.58297 52.9091212,145.93809 54.2352422,146.17283 C54.6830836,146.228205 55.1112014,146.212556 55.1054004,145.948924 C55.0903176,145.162846 54.0774535,144.19379 54.8315906,143.496792 C55.6193738,142.766088 59.8576241,142.520513 60.1987261,144.114339 C60.3646363,144.891991 58.9990681,146.263115 59.9353583,146.295618 C60.2184497,146.245058 60.4992207,146.18848 60.7637488,146.116252 C62.3068293,145.698535 63.5180895,144.941347 64.027422,144.622341 C65.7758598,143.522071 65.6621592,141.835553 66.0496696,138.767077 C66.3002752,136.780813 66.3002752,137.857007 66.0496696,140.8039 C65.7863017,143.888026 66.3002752,145.867066 64.3232758,147.223744 C63.2245561,147.978525 56.8921251,150.930233 56.8921251,150.930233 C56.9837818,149.367705 51.5853205,148.073624 50.1559407,146.907146 C48.8298197,145.826137 48.1650189,143.324649 48.2439132,136.843411" id="Fill-120" fill="#9E332E"></path>
                    <path d="M78.178963,225.152728 C78.2089085,225.95594 74.2676179,228.769518 67.6519623,230.894295 C67.1187018,231.067079 66.5670132,231.232858 66.0003519,231.3928 C65.9934414,231.395135 65.9876827,231.400972 65.9865309,231.409144 C65.3703444,238.748963 63.6991542,249.118339 62.1915126,259.125803 L62.1915126,259.128138 C61.8010692,261.722233 61.423295,264.290644 61.0754663,266.776165 C60.157521,273.3548 59.4687742,279.34737 59.3939104,283.662301 L59.3939104,283.706665 C59.3616614,285.686676 61.0086648,290.62503 61.1330538,291.765638 C61.2102211,292.463779 61.2724156,293.201614 61.3161822,293.974472 C61.4958553,297.064737 61.423295,300.716551 61.1779721,304.613531 C60.09763,321.628087 55.6622384,343.396539 54.079733,344.323502 C50.9343021,346.166921 45.2101015,344.321167 42.3019312,343.890375 C41.0960483,343.709418 40.132033,342.669212 40.1942276,341.437542 C41.6154878,313.201364 37.5336836,273.877822 34.4826962,249.704404 C34.4032254,249.075143 34.3237546,248.457557 34.2454356,247.850478 C33.8814824,244.999541 33.6396148,242.338901 33.4887354,239.938604 C33.3493736,237.832507 33.2825721,235.921376 33.2526266,234.26475 C33.2445643,233.748733 33.2399573,233.254898 33.2376238,232.789081 C33.2307433,231.274886 34.4181982,221.367824 34.4723305,175.97933 C34.4734822,174.930951 35.3211707,174.072868 36.3554427,174.072868 L63.7383137,174.072868 C66.3838849,174.072868 68.51232,176.267692 68.480071,178.950514 C68.4374563,182.4132 68.5606936,187.246482 69.302421,191.860283 C70.3125063,198.16223 72.4777974,204.049728 76.9442863,205.467024 C76.9488933,205.469359 76.9535003,205.471694 76.9558038,205.476364 C76.9753836,205.521895 77.0974692,205.797415 77.2932668,206.256227 C77.2932668,206.258562 77.2944185,206.260897 77.2944185,206.264399 C77.3370333,207.40384 77.3842551,208.563127 77.4360839,209.745764 C77.4464496,209.982758 77.4556636,210.22092 77.4683329,210.461417 C77.4740916,210.602679 77.4810021,210.740439 77.4879126,210.881702 C77.4982784,211.121031 77.5109476,211.362695 77.5236169,211.60436 C77.5397414,212.002463 77.5604729,212.402902 77.5823562,212.80801 C77.6007842,213.125559 77.6180604,213.443108 77.634185,213.762992 C77.6675857,214.377076 77.7044417,214.999332 77.744753,215.626258 C77.753967,215.828228 77.7666363,216.026697 77.781609,216.231002 C77.8334378,217.041219 77.8887218,217.864278 77.9509164,218.693174 C77.9670409,218.94768 77.9877724,219.202187 78.0085039,219.459028 C78.0142627,219.582778 78.0246284,219.705362 78.0349942,219.829112 C78.0591809,220.153666 78.0845195,220.479387 78.1110097,220.806276 C78.1398035,221.151844 78.1685972,221.49858 78.1996945,221.848818 C78.3079591,223.123683 78.146714,224.258454 78.178963,225.152728" id="Fill-122" fill="#0B0754"></path>
                    <path d="M61.2318232,304.592794 C60.1395825,321.61606 55.6553405,343.395653 54.0554058,344.323091 C50.8741674,346.167453 45.0880862,344.320755 42.1467216,343.889742 C40.9275574,343.707525 39.9540891,342.667954 40.0158042,341.435654 C41.4538823,313.185023 37.3271221,273.841353 34.2413674,249.654394 C34.1621857,249.024811 34.0818397,248.408077 34.002658,247.800687 C33.6346963,244.948291 33.3901648,242.285121 33.2376238,239.883596 C34.7048128,230.293846 42.9827864,229.779901 50.491068,249.617016 C53.708404,257.301664 61.4798481,300.692652 61.2318232,304.592794" id="Fill-124" fill="#060632"></path>
                    <path d="M78.3711091,282.940249 C78.5958406,284.906146 80.8685096,289.579965 81.1416447,290.693002 C84.8975414,305.987333 82.8230971,342.250849 80.9607071,343.701063 C78.0795345,345.945803 72.1604534,344.879435 69.2205048,344.8386 C68.0011926,344.821099 66.9109568,343.916903 66.812997,342.690697 C64.503449,313.797255 54.931041,274.111794 48.7757038,250.766033 C45.6767145,239.006817 45.2376238,230.360368 45.2376238,230.360368 C45.2376238,230.360368 74.0055564,212.516786 77.1160703,222.264604 C79.8693189,230.890052 76.6354907,267.847757 78.3711091,282.940249" id="Fill-126" fill="#0B0754"></path>
                    <path d="M67.8896363,119.251175 C67.8896363,119.251175 67.103416,118.184247 65.6974017,116.988828 C65.474735,116.796092 65.2348517,116.60221 64.9788997,116.409474 C62.3895378,114.440819 58.2472475,112.518053 53.2510186,114.601432 C51.8978016,115.165872 50.7729901,115.931077 49.8375602,116.819037 C49.6160412,117.028981 49.4071476,117.243514 49.2097317,117.46493 C44.8780598,122.268403 45.2453452,129.8 45.2453452,129.8 L70.2356716,129.532694 C70.3160153,122.559801 67.8896363,119.251175 67.8896363,119.251175" id="Fill-128" fill="#E75755"></path>
                    <path d="M63.6677493,129.783818 C63.6594017,129.68904 62.8997682,120.194985 66.2376238,117.073066 C66.0062754,116.878886 66.0611312,116.912405 65.7951999,116.71938 C62.2808518,120.264335 62.2104933,129.398924 62.2414988,129.8 L63.6677493,129.783818 Z" id="Fill-130" fill="#A83F3F"></path>
                    <path d="M53.8545522,130.007036 C53.6168834,123.699686 50.2390016,117.420722 49.8325535,116.71938 C49.6109589,116.935814 49.5696252,116.977209 49.372142,117.206653 C49.9577028,118.269902 52.1644631,124.350172 52.3757242,130.023593 L45.2376238,130.102834 C45.2376238,130.102834 51.8969422,131.875704 56.9109497,131.810656 C61.9261054,131.74679 70.2376238,129.827265 70.2376238,129.827265 L53.8545522,130.007036 Z" id="Fill-132" fill="#A83F3F"></path>
                    <path d="M69.374894,154.955039 C69.374894,154.955039 60.7444677,165.164398 60.2376238,174.072868 L64.6244051,174.072868 C64.6244051,174.072868 65.7413391,164.387677 72.2376238,155.564979 L69.374894,154.955039 Z" id="Fill-134" fill="#0B0754"></path>
                    <path d="M48.2376238,154.955039 C42.2192513,164.444936 41.5056329,174.072868 41.5056329,174.072868 L37.2376238,174.072868 C37.5927203,167.078308 41.7671027,159.629185 44.0940697,155.984351 L44.0963533,155.984351 C45.6811571,155.525028 47.1437894,155.18589 48.2376238,154.955039" id="Fill-136" fill="#0B0754"></path>
                    <path d="M53.7159842,210.543889 C53.2946473,201.216138 56.2046499,182.436328 60.5083053,168.964212 C60.9909907,167.457277 61.4898814,166.016014 62.0049773,164.660359 C62.1971255,164.246392 62.3892736,163.846497 62.5814218,163.45012 C59.2686025,172.64301 56.7787793,185.780902 55.6999716,196.813777 C55.1455201,202.519021 54.9695772,207.661363 55.2485392,211.405832 C55.75206,218.137199 59.8936628,223.761526 64.9809585,227.337125 C57.8876824,223.365149 53.9752684,216.294868 53.7159842,210.543889 M64.1324971,228.827641 C54.897811,224.424108 50.2955157,215.307445 50.5212319,208.578423 C50.7180101,202.604629 52.5816156,192.939136 55.2936825,183.37567 C53.1777379,193.713126 51.9982261,204.199517 52.2887633,210.641224 C52.6545393,218.798608 58.3738404,225.580402 64.7621875,229.11261 C64.551519,229.024657 64.3466382,228.93084 64.1324971,228.827641 M48.6819343,208.578423 C49.0442377,197.705038 54.9117012,174.610821 61.40191,162.142547 C61.1738787,162.693721 60.9458475,163.264832 60.7212888,163.851188 C54.589911,177.007844 49.4401092,197.932544 49.0893809,208.506888 C48.9412185,212.929185 50.3892747,217.136876 52.7158878,220.74531 C49.9135344,216.760435 48.5569222,212.302957 48.6819343,208.578423 M92.1664485,209.449748 C92.0043958,206.109865 91.5529634,202.136716 90.6929268,197.413033 C90.6906118,199.689267 90.5447644,201.842366 90.2148715,203.789068 C91.2855765,212.435473 90.8723423,219.044878 88.9705387,222.784657 C87.7921844,225.105454 86.1612402,226.88563 84.1865129,228.077106 C85.1923968,227.084991 86.0813714,225.902898 86.8314436,224.540206 C88.2933901,221.885186 89.6384271,216.945724 89.1406939,207.833751 C89.0399898,208.094093 88.9346556,208.345054 88.8212187,208.587805 C88.8212187,208.587805 88.4519702,208.652304 87.737781,208.727358 C88.0306333,215.388362 87.3280193,220.490832 85.6484593,223.542229 C84.376346,225.857162 82.6493277,227.583394 80.5877865,228.682225 C81.2371546,228.030197 81.8344344,227.298425 82.3888859,226.479872 C84.1228493,223.898733 85.9320514,218.822063 86.0096052,208.858702 C85.5766931,208.884501 85.0963228,208.90561 84.5708092,208.919683 C84.4909403,216.556383 83.3785646,222.240518 81.2846129,225.347032 C81.1885388,225.490103 81.0878346,225.634347 80.985973,225.772727 C82.574089,223.012163 84.0927538,218.008201 84.1714651,208.925546 C83.7200327,208.932582 83.2396624,208.937273 82.7291965,208.932582 C82.6539578,216.563419 81.536952,222.242864 79.4464728,225.347032 C78.1350038,227.291389 76.4924844,228.717407 74.604571,229.595768 C74.0281266,229.496087 73.4377919,229.363571 72.8451422,229.204082 C72.7652734,229.185319 72.6854046,229.16421 72.6066933,229.13841 C72.5974332,229.136065 72.5916456,229.134892 72.5823854,229.131374 C72.5036742,229.111438 72.4238053,229.087984 72.3462516,229.064529 C71.6239598,228.851096 70.9213458,228.608344 70.2407246,228.33393 C61.9158484,224.984664 57.1387677,217.441781 56.6746026,211.241652 C56.3447097,206.836946 56.6965954,200.280313 57.5751523,193.147879 C59.3056431,179.091753 63.0733673,162.795747 67.6559848,156.320032 C67.7335386,156.210969 67.8076198,156.104253 67.8851736,156.002227 C67.8851736,156.002227 67.8851736,155.999881 67.8874886,155.999881 C67.9835627,155.872056 68.0796367,155.747748 68.1780259,155.63165 C68.3470236,155.425252 68.5137064,155.232928 68.6861767,155.057021 L68.6908068,155.05233 C69.0496376,154.678235 69.409626,154.383884 69.7580392,154.166932 C69.8541133,154.224395 69.9594475,154.295931 70.0751994,154.388575 C70.3726818,154.618426 70.7257251,154.967895 71.1366443,155.496788 C71.1389593,155.501479 71.1435894,155.503824 71.1459044,155.508515 C71.6239598,155.612886 72.1193779,155.733676 72.6275287,155.863847 C72.8636625,155.928346 73.105584,155.990499 73.348663,156.062035 C73.3648682,156.06438 73.377601,156.066726 73.3938062,156.073762 C73.4516822,156.086662 73.5095581,156.104253 73.562804,156.120671 C73.8602864,156.203933 74.1589262,156.291886 74.4587237,156.382185 C74.6265639,156.43613 74.7990342,156.488902 74.968032,156.542847 C75.1694403,156.607346 75.3685335,156.673018 75.5676268,156.739862 C75.7852404,156.813743 76.0028539,156.887624 76.2169949,156.96385 C76.4461837,157.04594 76.6753724,157.129203 76.8987736,157.214811 C76.8941435,157.207775 76.890671,157.200738 76.8860409,157.193702 C74.1890217,152.886331 72.2710128,151.883662 71.02668,151.94347 C70.8322168,151.952852 70.6400687,151.978652 70.4421329,152.022042 C70.2164167,151.962234 70.0080633,151.936434 69.8182302,151.936434 C69.4015234,151.93878 68.9825015,152.017351 68.5646372,152.170977 C67.2832637,152.296457 65.9359117,153.116182 64.5399438,154.625463 C64.4450273,154.725143 64.3501107,154.83186 64.2540366,154.940922 C63.4784989,155.82632 62.7029613,156.904042 61.9297386,158.138908 C61.9251085,158.145944 61.9204784,158.15298 61.9158484,158.161189 C54.5366651,169.97509 47.65753,196.221557 47.2477683,208.506888 C46.925978,218.22867 54.3132639,226.920812 61.7781036,230.481165 C62.5084981,230.828288 63.2342624,231.129675 63.9496092,231.382981 C64.3535833,231.526052 64.7552423,231.653877 65.1534289,231.76763 C65.162689,231.769976 65.1696341,231.772321 65.1777368,231.774667 C66.7253396,232.214434 68.2277992,232.432558 69.6689103,232.432558 C69.9791253,232.432558 70.2835528,232.423176 70.5845077,232.402068 C70.8958803,232.423176 71.2037804,232.432558 71.5116804,232.432558 C72.8682926,232.432558 74.1728165,232.240233 75.4032591,231.857929 C75.5977223,231.848548 75.7921855,231.834475 75.9843336,231.820402 C76.1487013,231.803985 76.313069,231.791085 76.4739641,231.769976 C76.7899668,231.732449 77.1024969,231.683195 77.412712,231.625732 C78.3155768,231.630423 79.1964487,231.563579 80.0472251,231.419335 C82.7291965,230.973704 85.1078979,229.806856 87.0560023,227.970389 C88.2818149,226.815268 89.3363146,225.397459 90.1859336,223.72869 C91.4302664,221.271858 92.5322245,216.955105 92.1664485,209.449748" id="Fill-138" fill="#E75755"></path>
                    <path d="M78.5118834,196.110758 C78.2772247,196.146399 73.8591671,196.976834 73.6175727,197.011287 C66.2564554,198.12091 56.3557064,198.609192 55.3234391,198.657901 C55.2274949,198.565235 51.7145497,195.203101 50.3447437,195.203101 C48.9564426,195.203101 44.9533727,196.702399 44.5441648,197.854791 C44.1361129,199.008371 43.9719674,201.085053 45.1152063,201.54601 C46.2596011,202.006967 50.997858,203.160547 52.2243255,203.275786 C52.3907829,203.291231 52.593075,203.291231 52.8127063,203.269846 C61.6152987,205.928664 69.1914235,207.235501 75.0301489,207.85209 C75.5514843,207.909116 78.5639013,208.311859 81.2376238,208.282158 C81.1451474,203.059564 79.434335,198.236149 78.5118834,196.110758" id="Fill-140" fill="#FC9290"></path>
                    <path d="M105.671474,299.866904 C105.280307,299.774986 104.886852,300.028349 104.797639,300.431371 L98.1775371,330.218529 C96.390979,330.272737 94.5723954,332.267818 93.9547633,335.046554 L93.3245498,337.884212 C93.2913806,338.031516 93.2524927,338.209459 93.2376238,338.361476 L100.589734,340.096124 C100.659503,339.957069 100.698391,339.780305 100.732704,339.631823 L101.362918,336.794165 C101.978262,334.022499 101.190209,331.41817 99.598091,330.557917 L106.219336,300.767224 C106.30855,300.364201 106.062641,299.96 105.671474,299.866904" id="Fill-142" fill="#0B0754"></path>
                    <path d="M86.2376238,338.111513 C86.2376238,338.111513 101.638908,334.073316 106.554628,337.359461 C111.471503,340.646773 104.050045,344.12093 104.050045,344.12093 L86.2376238,338.111513 Z" id="Fill-144" fill="#FA7269"></path>
                    <path d="M206.763814,159.810663 C203.77722,168.889813 187.503094,184.582758 185.252616,186.147287 C185.252616,186.147287 181.466711,179.879873 182.223892,176.369563 C182.842978,173.503197 189.178957,163.288427 191.347514,158.268219 C191.461033,158.007852 191.561678,157.759108 191.65062,157.528962 C191.947875,156.759483 192.104695,156.162033 192.068416,155.808678 C191.961919,154.718389 188.509548,152.065897 184.498946,148.918241 C179.286451,144.826754 173.126016,139.905346 172.125414,136.501973 C170.359438,130.485627 164.237624,106.657364 164.237624,106.657364 C164.237624,106.657364 179.446781,109.924742 183.738254,113.684958 C188.029727,117.446337 206.458367,148.78922 207.216718,156.811789 C207.299809,157.687042 207.132457,158.699453 206.763814,159.810663" id="Fill-146" fill="#E75755"></path>
                    <path d="M206.237624,159.625999 C203.328609,168.768809 187.477217,184.571788 185.285197,186.147287 C185.285197,186.147287 181.597633,179.835927 182.335146,176.301004 C182.970068,173.265886 189.766128,162.039579 191.517008,157.328299 C194.150167,156.858927 200.334103,156.283038 206.237624,159.625999" id="Fill-148" fill="#FC9290"></path>
                    <path d="M164.185283,104.141363 L164.174815,105.972886 C164.174815,105.972886 164.67961,111.699846 157.548506,112.536226 C150.418566,113.374907 145.049592,110.817448 145.242671,106.396253 C145.884714,102.974803 146.556999,100.111323 146.604687,97.2800556 C146.622134,96.2273902 146.55002,95.1102994 146.351126,93.8494018 L160.167858,93.5767442 L164.237624,94.2348039 L164.185283,104.141363 Z" id="Fill-150" fill="#FC9290"></path>
                    <path d="M164.237624,94.2586723 L164.184951,104.524551 C162.707776,105.224362 161.04215,105.651163 159.172856,105.651163 C152.783078,105.651163 148.652372,100.877666 146.492793,97.4143778 C146.510351,96.3235314 146.43778,95.1659227 146.237624,93.8604835 L160.142033,93.5767442 L164.237624,94.2586723 Z" id="Fill-152" fill="#EA8888"></path>
                    <path d="M152.237624,351.025787 C152.237624,351.025787 151.569074,345.882101 150.022257,342.824745 C148.47544,339.766244 138.629108,341.712875 138.629108,341.712875 C138.629108,341.712875 136.660536,343.380107 136.237624,351.164341 L152.237624,351.025787 Z" id="Fill-154" fill="#060632"></path>
                    <path d="M185.62014,350.15814 C183.284991,348.776358 184.614517,338.47137 184.614517,338.47137 C184.614517,338.47137 195.492784,330.034452 196.989525,336.493347 C198.485097,342.953376 207.325223,345.852965 212.355676,346.644174 C215.829752,347.190539 216.904365,349.055208 217.237624,350.15814 L185.62014,350.15814 Z" id="Fill-156" fill="#060632"></path>
                    <path d="M163.213142,272.115693 C163.655837,274.549852 163.936171,276.546632 164.010926,277.977735 C165.021297,297.653948 180.598529,342.644479 183.385517,343.694188 C187.695654,345.317738 194.484412,341.865362 198.036479,340.735175 C199.508233,340.266305 200.502251,338.783883 200.175194,337.2793 C192.460166,301.867947 189.624119,250.87658 188.593892,220.68578 C188.071769,205.480161 185.458822,194.976073 185.458822,194.976073 C185.458822,194.976073 147.466542,184.854545 147.239938,197.658663 C147.0402,208.988522 159.825772,253.42504 163.213142,272.115693" id="Fill-158" fill="#0B0754"></path>
                    <path d="M163.075519,272.68062 L188.237624,221.531106 C187.719999,206.408389 185.129561,195.961569 185.129561,195.961569 C185.129561,195.961569 147.46457,185.895224 147.239918,198.629533 C147.041901,209.897622 159.71733,254.091869 163.075519,272.68062" id="Fill-160" fill="#060632"></path>
                    <path d="M171.237624,197.81157 L151.444456,343.038836 C151.444456,343.038836 142.752498,345.159741 135.992087,343.463017 C135.992087,343.463017 130.197449,266.224761 130.680911,247.551469 C131.163222,228.878176 126.520834,197.585496 131.739923,194.13378 C136.95786,190.68323 171.237624,197.81157 171.237624,197.81157" id="Fill-162" fill="#0B0754"></path>
                    <path d="M186.026256,198.439824 C186.026256,198.439824 175.824965,204.42363 161.047839,204.255434 C155.286536,204.190025 150.275295,203.756686 146.023402,203.118943 C134.171049,201.350549 128.190301,198.02167 128.237624,196.782392 C128.278544,195.663421 128.355175,191.946757 128.495667,190.350063 C130.378946,168.499766 129.404796,151.504961 131.939444,138.738417 C131.969632,138.584237 131.99982,138.431226 132.032331,138.28055 C135.386705,122.048467 140.642935,112.724101 143.253054,108.899978 C144.206304,107.504185 144.805424,106.843081 144.835612,106.843081 C144.835612,109.871777 151.248284,112.486991 156.474326,112.144759 C160.878321,111.855088 163.73575,108.486496 163.73575,106.662036 L163.741556,106.657364 C164.100331,106.657364 183.601911,120.292921 183.619327,132.963687 C183.68667,189.749697 187.108387,198.460848 186.026256,198.439824" id="Fill-164" fill="#E75755"></path>
                    <path d="M146.138483,203.065781 C146.127982,203.128871 146.120982,203.19196 146.111648,203.252713 C134.201256,201.483869 128.191223,198.154143 128.237893,196.914551 C128.27873,195.795295 128.356904,192.077686 128.498083,190.480586 C130.390585,168.624732 129.411664,151.625605 131.958724,138.855814 C138.210279,147.223357 151.062254,169.136458 146.138483,203.065781" id="Fill-166" fill="#A83F3F"></path>
                    <path d="M178.237624,175.661577 L176.649961,180.923455 L175.072714,186.147287 L106.552123,165.611667 C106.454919,165.617432 106.36003,165.607056 106.269769,165.579386 C106.174879,165.551716 106.086933,165.506752 106.004773,165.45026 C105.14151,164.841524 104.984133,162.609492 105.648359,160.096149 C105.683074,159.956647 105.723576,159.817145 105.765235,159.675337 C106.566009,156.972918 108.024066,154.972621 109.143067,154.955039 C109.235643,154.953021 109.322432,154.96455 109.409221,154.989914 C109.500639,155.017584 109.581642,155.056783 109.661488,155.112123 L178.237624,175.661577 Z" id="Fill-168" fill="#DEE9FD"></path>
                    <path d="M177.237624,180.902535 L175.669483,186.147287 L107.544533,165.526033 C107.44789,165.530664 107.353549,165.520244 107.263809,165.492457 C107.169468,165.465828 107.082029,165.420675 107.000343,165.363944 C106.142065,164.751477 105.985596,162.511169 106.645987,159.986047 C109.430213,162.088578 122.73007,171.392514 145.431867,175.917126 C168.896451,180.595723 176.158449,180.887484 177.237624,180.902535" id="Fill-170" fill="#ED6966"></path>
                    <path d="M179.245635,175.115894 C178.144802,174.766443 176.576949,176.943336 175.744096,179.978301 C174.911243,183.01566 175.128074,185.759814 176.228907,186.110463 C177.329741,186.459914 178.898706,184.283021 179.731559,181.246859 C180.564411,178.210697 180.346469,175.465346 179.245635,175.115894" id="Fill-172" fill="#BED2FA"></path>
                    <path d="M110.729184,153.327335 L102.664772,152.032454 C102.575809,151.99131 102.491468,151.961595 102.396728,151.946738 C102.307766,151.934166 102.221114,151.93188 102.130996,151.946738 C101.024161,152.109027 99.8445383,154.261067 99.4066569,157.022262 C99.3823943,157.167407 99.3615978,157.307981 99.3442674,157.450841 C99.1871385,158.674864 99.2090903,159.805171 99.3743068,160.710331 C99.5533876,161.679492 99.8999956,162.384648 100.373693,162.648653 C100.384091,162.655511 100.393334,162.661225 100.401422,162.665797 C100.490385,162.712655 100.582813,162.744655 100.679864,162.759513 C100.772292,162.77437 100.867032,162.772084 100.964082,162.754941 L171.482632,174.072868 L172.357239,168.737911 L173.237624,163.360667 L110.729184,153.327335 Z" id="Fill-174" fill="#DEE9FD"></path>
                    <path d="M139.972844,167.995992 C124.914332,167.037087 116.93234,159.147548 110.710539,153.327828 L102.658186,152.032906 C102.570522,151.990618 102.486319,151.960902 102.391735,151.947187 C102.302918,151.934615 102.216408,151.931186 102.125284,151.947187 C101.020263,152.109481 99.8437262,154.261589 99.4065622,157.02287 C99.3823394,157.16802 99.361577,157.308599 99.3431216,157.451463 C99.1874035,158.674382 99.2093194,159.805867 99.3742652,160.711055 C99.7526023,161.77168 100.140167,162.490573 100.372014,162.649438 C100.382395,162.656296 100.391623,162.660867 100.398544,162.665439 C100.488514,162.712299 100.580792,162.7443 100.677683,162.759158 C100.76996,162.775159 100.864545,162.77173 100.961436,162.754586 L171.364449,174.072868 L172.237624,168.737744 C171.162592,168.863464 163.907285,169.521783 139.972844,167.995992" id="Fill-176" fill="#ED6966"></path>
                    <path d="M173.670863,163.01518 C172.389306,162.828395 170.934533,165.149197 170.418646,168.199628 C169.904016,171.250059 170.524083,173.875555 171.804384,174.06234 C173.084686,174.249125 174.53946,171.928322 175.056601,168.876724 C175.571232,165.82746 174.951164,163.201965 173.670863,163.01518" id="Fill-178" fill="#BED2FA"></path>
                    <path d="M147.903787,184.134884 C131.424861,181.499841 120.532031,174.558866 116.061059,171.201877 C114.533875,170.056359 113.75515,169.326223 113.75515,169.326223 C105.310239,151.482348 120.58674,120.194137 123.38037,114.891289 C126.392835,109.171888 144.790053,106.657364 144.790053,106.657364 C144.790053,106.657364 141.852086,115.345284 140.704369,126.670586 C139.556653,137.995889 127.314733,160.07198 127.816422,161.924232 C127.942135,162.391098 129.420431,163.370464 131.578511,164.607249 C137.973596,168.266121 150.331917,174.168056 151.081541,175.553443 C152.087248,177.403355 147.903787,184.134884 147.903787,184.134884" id="Fill-180" fill="#FC9290"></path>
                    <path d="M151.468029,175.669444 C151.468029,175.669444 160.819887,171.893357 163.116171,173.437686 C165.411272,174.983208 169.237624,177.299701 169.237624,178.844029 C169.237624,180.389551 164.392016,184.508158 160.310259,185.795895 C156.228502,187.082437 148.237624,184.42223 148.237624,184.42223 L151.468029,175.669444 Z" id="Fill-182" fill="#FC9290"></path>
                    <path d="M141.21921,126.624816 C140.090391,137.924217 128.048889,159.948653 128.543463,161.796669 C128.665962,162.262468 130.121063,163.240761 132.242464,164.47355 C132.108517,164.484057 131.973425,164.486392 131.834899,164.481722 C122.361289,164.055616 118.073836,169.400038 116.980507,171.054264 C115.479613,169.911365 114.71371,169.182899 114.71371,169.182899 C106.407844,151.379833 121.432818,120.163179 124.179306,114.872458 C127.14217,109.16497 145.237624,106.657364 145.237624,106.657364 C145.237624,106.657364 142.346885,115.325414 141.21921,126.624816" id="Fill-184" fill="#E75755"></path>
                    <path d="M165.18799,100.060619 C165.18799,100.060619 147.539311,103.687224 145.48838,92.4747144 C143.437449,81.2610253 139.777558,74.1777018 150.959076,71.3887317 C162.141755,68.5997616 165.119549,72.4623201 166.699508,76.0358355 C168.278307,79.6093509 169.726023,98.8289415 165.18799,100.060619" id="Fill-186" fill="#FC9290"></path>
                    <path d="M145.70603,94.5829457 C145.70603,94.5829457 142.298814,87.3588983 139.454832,84.1514074 C136.612009,80.9427656 138.16264,64.9018586 150.439047,65.4151492 C162.714294,65.9295907 167.107748,74.6555311 167.236388,76.3231501 C167.365027,77.9907692 157.415726,76.7086935 154.702702,78.8896032 C151.989677,81.0716637 154.572903,84.6635471 151.4728,85.9467736 C148.371539,87.2300002 145.916953,87.2300002 146.432671,90.0530985 C146.949548,92.8761969 145.70603,94.5829457 145.70603,94.5829457" id="Fill-188" fill="#060632"></path>
                    <path d="M149.790977,57.9848801 C146.298537,58.8590365 143.678342,60.2569975 141.722991,61.938686 C141.528262,62.1052467 141.340447,62.2764022 141.158393,62.449855 L141.156089,62.4521524 C133.918868,69.3328315 136.806382,80.285632 136.806382,80.285632 C136.806382,80.285632 137.769655,83.0528367 138.433345,84.1257172 C139.095883,85.1997464 148.706719,83.9614539 149.203334,81.8961015 C149.701102,79.8318977 151.605755,77.6838393 151.605755,77.6838393 C151.605755,77.6838393 161.736251,76.990028 162.418377,76.9406341 C164.706726,76.7752221 171.237624,74.5099969 171.237624,74.5099969 C171.16388,73.8701741 167.487082,53.5543661 149.790977,57.9848801" id="Fill-190" fill="#E75755"></path>
                    <path d="M176.662072,73.0476 C175.439853,72.745084 173.355709,72.4085642 169.923068,72.2819296 C169.923068,72.2819296 167.039558,74.6985402 161.308451,76.5406049 C158.616093,73.1050546 150.943337,64.8280752 140.952419,62.4067744 C140.92114,62.3985666 140.894494,62.3915314 140.864373,62.3844961 C140.652367,62.654181 140.531883,62.7456393 140.384753,62.928556 L140.382436,62.9309011 C140.337255,62.9836655 140.289756,63.0469828 140.237624,63.1255432 C148.370305,64.559563 156.100986,73.8050627 158.755113,77.2664089 C156.477499,77.8327471 153.858127,78.2806584 150.888887,78.4776456 C150.888887,78.4776456 168.690423,78.8141653 176.827738,74.4781022 C177.447536,74.1474451 177.342113,73.2164462 176.662072,73.0476" id="Fill-192" fill="#A83F3F"></path>
                    <path d="M195.227016,153.586721 C194.885032,155.42964 193.842283,157.36733 190.862827,157.973643 C190.979221,157.717873 191.082416,157.473521 191.173612,157.247438 C191.478397,156.490402 191.639189,155.904642 191.601991,155.557525 C191.492796,154.485344 187.952967,151.879681 183.840766,148.788739 C183.502382,147.034884 182.673222,141.830409 183.838366,137.699257 C185.261497,132.651214 195.614597,151.493741 195.227016,153.586721" id="Fill-194" fill="#A83F3F"></path>
                    <path d="M130.342403,163.053118 C130.342403,163.053118 118.201506,162.044438 114.237624,169.230262 C114.237624,169.230262 114.575318,171.65203 116.925391,170.914513 C116.925391,170.914513 127.196337,163.770765 132.237624,164.325949 C132.237624,164.325949 131.457712,163.074156 130.342403,163.053118" id="Fill-196" fill="#A83F3F"></path>
                    <path d="M190.237624,158.444793 C190.237624,158.444793 196.759215,158.696272 204.970973,161.99845 C204.970973,161.99845 206.793165,160.344615 206.066429,159.397998 C205.338504,158.450283 193.779717,155.04378 190.237624,158.444793" id="Fill-198" fill="#A83F3F"></path>
                    <path d="M278.708926,116.963471 C284.202763,88.5652135 289.237624,61.3782946 289.237624,61.3782946 C289.237624,61.3782946 273.598918,63.7683278 266.865731,69.4262941 C260.132544,75.0854263 259.451595,111.115468 257.206428,121.301673 C256.76595,123.30114 256.368248,126.530599 256.027196,130.464244 C254.749694,145.112233 256.338189,167.04924 257.5417,173.199203 C257.461929,173.790299 256.963645,176.693315 254.312684,182.262675 C254.312684,182.262675 252.941537,186.53792 261.91989,192.95137 C267.641481,197.03891 272.741084,147.831041 278.708926,116.963471" id="Fill-200" fill="#FC9290"></path>
                    <path d="M289.237624,61.3782946 C289.237624,61.3782946 286.351976,77.0870155 282.576051,97.1089428 C281.379059,103.463032 280.091315,110.248442 278.776002,117.107492 C273.427445,127.77245 268.838209,135.024247 267.421806,133.660152 C264.529266,130.881699 259.451813,130.538045 256.237624,130.642077 C256.576504,126.69824 256.971672,123.461582 257.410492,121.455765 C257.585102,120.6504 257.75167,119.681389 257.912494,118.580294 C259.7838,105.73068 260.844092,74.6709186 267.007109,69.4471465 C273.698549,63.7733514 289.237624,61.3782946 289.237624,61.3782946" id="Fill-202" fill="#6D89CF"></path>
                    <path d="M283.237624,96.2997089 C282.010565,102.619711 280.690476,109.36872 279.340947,116.189811 C273.859222,126.798718 269.154712,134.011612 267.702732,132.654835 C264.737537,129.891287 259.532547,129.549477 256.237624,129.65295 C256.585016,125.73027 256.99011,122.509813 257.439953,120.51592 C257.618948,119.713712 257.7897,118.751063 257.954564,117.654712 L274.390319,78.4837209 L283.237624,96.2997089 Z" id="Fill-204" fill="#3662C1"></path>
                    <path d="M311.194835,61.133199 C311.31152,55.5548745 311.223156,48.8948082 310.503786,43.2666667 L289.237624,46.9056842 C289.237624,46.9056842 289.237624,53.6997821 289.330519,61.2387637 C289.318057,61.2411359 289.31126,61.2423221 289.31126,61.2423221 C289.31126,61.2423221 288.7301,68.2356882 296.958106,69.2593102 C305.18498,70.2829321 311.415744,66.530047 311.194835,61.133199" id="Fill-206" fill="#FC9290"></path>
                    <path d="M289.237624,48.2976744 C289.237624,48.2976744 294.276418,58.3596899 300.052458,58.3596899 C305.829637,58.3596899 311.237624,48.8962866 311.237624,48.8962866 L289.237624,48.2976744 Z" id="Fill-208" fill="#EA8888"></path>
                    <path d="M304.237624,350.997323 C304.237624,350.997323 305.030936,344.82576 306.868447,341.155995 C308.705957,337.487389 320.397729,339.822167 320.397729,339.822167 C320.397729,339.822167 322.737012,341.822909 323.237624,351.164341 L304.237624,350.997323 Z" id="Fill-210" fill="#060632"></path>
                    <path d="M264.604032,350.15814 C267.362798,348.517419 265.792692,336.280186 265.792692,336.280186 C265.792692,336.280186 252.935559,326.260881 251.167149,333.931592 C249.399906,341.602303 238.953923,345.046226 233.007119,345.985891 C228.903382,346.633544 227.6319,348.848063 227.237624,350.15814 L264.604032,350.15814 Z" id="Fill-212" fill="#060632"></path>
                    <path d="M314.428466,36.4287192 C314.428466,36.4287192 329.062609,13.7003254 300.963325,12.1956061 C300.963325,12.1956061 290.423612,13.4184782 288.036557,11.0682171 C288.036557,11.0682171 279.861711,23.3072909 287.495849,36.4287192 C295.132324,49.5501475 314.428466,36.4287192 314.428466,36.4287192" id="Fill-214" fill="#060632"></path>
                    <path d="M290.106681,48.7887742 C292.242008,50.4639869 298.502825,52.1275256 300.312703,52.3224806 C300.312703,52.3224806 309.596225,50.2573579 311.284351,49.2428911 C313.897317,47.6634049 313.729909,44.4647411 313.863367,40.0192987 C314.023751,34.7566795 314.556412,30.6240992 313.966388,27.5900381 C313.266319,23.9606053 310.958901,21.8966499 304.499068,21.3351327 C292.640041,20.308992 287.698585,23.2706745 287.492544,27.2351499 C287.439864,28.2998146 287.389524,29.3154488 287.354404,30.2773827 C286.880277,42.6412692 287.860139,47.0260069 290.106681,48.7887742" id="Fill-216" fill="#FC9290"></path>
                    <path d="M290.550181,257.845938 C290.032283,260.728058 289.703549,263.092515 289.615887,264.786577 C288.434755,288.088376 270.211412,341.365622 266.951764,342.608478 C261.908884,344.533389 253.966233,340.44339 249.811509,339.10493 C248.08941,338.549959 246.927886,336.794104 247.310832,335.013766 C256.335418,293.078454 259.651584,232.692679 260.859246,196.9425 C261.468267,178.93508 264.526061,166.496028 264.526061,166.496028 C264.526061,166.496028 308.971918,154.509347 309.234905,169.673122 C309.469055,183.089204 294.513433,235.71121 290.550181,257.845938" id="Fill-218" fill="#0B0754"></path>
                    <path d="M290.310063,257.587597 L260.237624,196.848314 C260.85447,178.88943 263.951554,166.483905 263.951554,166.483905 C263.951554,166.483905 308.968504,154.529533 309.23487,169.652436 C309.472028,183.032357 294.324239,235.51253 290.310063,257.587597" id="Fill-220" fill="#060632"></path>
                    <path d="M280.237624,169.493601 L303.800773,341.830256 C303.800773,341.830256 314.147969,344.348156 322.196687,342.333369 C322.196687,342.333369 329.094432,250.676907 328.519524,228.517753 C327.945772,206.359766 333.471602,169.226286 327.258658,165.130175 C321.04687,161.035231 280.237624,169.493601 280.237624,169.493601" id="Fill-222" fill="#0B0754"></path>
                    <path d="M331.14979,165.364566 C331.227055,167.361923 329.664455,169.026581 327.694773,169.056932 L290.675578,169.627772 L263.486346,170.048062 C262.213202,170.07137 266.237905,159.758894 266.319783,92.5258473 C266.340541,77.5217436 289.28596,61.3782946 289.708035,61.3782946 L289.713801,61.382964 C289.713801,63.5437511 293.076561,67.532627 298.259087,67.8746641 C304.408003,68.2832408 311.953456,65.1862294 311.953456,61.6000934 C311.953456,61.5592357 312.667293,62.3425356 313.817043,64.0352105 C316.885735,68.5622403 323.0704,79.6019827 327.017838,98.8202631 C330.134965,113.997136 328.935626,134.288223 331.17862,160.469817 C331.344682,162.360944 331.102508,164.040778 331.14979,165.364566" id="Fill-224" fill="#FFFFFF"></path>
                    <path d="M329.749991,169.145564 C329.749991,169.145564 324.831733,171.375095 315.632618,173.30378 C308.79293,174.739215 299.588052,176.012566 288.279631,176.083697 C270.296347,176.199138 263.486627,169.927999 263.486627,169.927999 C262.212975,169.950155 266.235642,159.650235 266.318632,92.4902794 C266.338226,77.5039135 289.273195,61.3782946 289.695056,61.3782946 L289.700819,61.3829589 C289.700819,61.3829589 289.110675,81.3402926 295.078976,87.2079702 C295.078976,87.2079702 303.4482,80.6686347 314.305945,62.0546167 C317.374237,66.5778126 323.040551,79.581855 326.985992,98.7789093 C327.787068,102.685253 328.303445,106.928591 328.666522,111.524084 C329.713107,124.769503 329.480277,140.942931 331.14467,160.359207 C331.310648,162.248245 331.068597,163.926223 331.115854,165.249716 C331.19308,167.244866 331.722136,169.115247 329.749991,169.145564" id="Fill-226" fill="#6D89CF"></path>
                    <path d="M329.728833,168.902815 C329.728833,168.902815 324.740624,171.135368 315.410674,173.066667 C312.475265,168.595722 308.776485,160.52607 308.264454,147.809158 C307.397041,126.30332 327.850218,98.6077519 327.850218,98.6077519 L328.629954,111.203228 C329.691425,124.466602 329.455283,140.661953 331.143348,160.104548 C331.311687,161.996146 331.066193,163.676399 331.114122,165.001685 C331.192447,166.99954 331.729027,168.872456 329.728833,168.902815" id="Fill-228" fill="#3662C1"></path>
                    <polygon id="Fill-230" fill="#0B0754" points="311.837148 96.5953488 277.237624 116.565416 304.639259 164.010853 339.237624 144.041946"></polygon>
                    <path d="M334.14827,68.361298 C329.896534,65.1474169 319.909843,62.8670863 314.9945,61.897451 C313.262139,61.5563908 312.158457,61.3782946 312.158457,61.3782946 C312.671879,63.7412712 313.824458,67.4475361 315.33096,71.8964507 C321.644533,90.5453418 334.158748,122.25579 331.637045,122.930926 C329.585686,123.481511 326.960367,123.965747 324.073098,124.388289 C313.096819,125.994648 298.326343,126.705869 296.780257,126.778038 C296.660342,126.663964 291.399226,121.761078 289.350196,121.761078 C287.277882,121.761078 281.304263,123.936646 280.695375,125.610518 C280.085323,127.284391 279.842001,130.296895 281.547585,130.967375 C283.255498,131.636691 290.325814,133.310563 292.154806,133.478183 C292.405113,133.501464 292.705482,133.5003 293.034957,133.471199 C306.168538,137.331115 317.473128,139.226153 326.184996,140.12129 C338.340631,141.369128 345.449367,140.676532 345.449367,140.676532 C354.255537,121.728485 339.899523,72.7077782 334.14827,68.361298" id="Fill-232" fill="#FC9290"></path>
                    <path d="M345.423093,140.675428 C345.423093,140.675428 338.246156,141.372013 325.973901,140.116989 C326.650926,136.796795 327.278585,130.310945 323.841742,124.293387 C326.756711,123.868411 329.407217,123.381387 331.478256,122.827631 C334.024153,122.148607 321.389877,90.2555492 315.015732,71.4992654 C314.505613,65.4360488 314.237624,61.3782946 314.237624,61.3782946 L314.676045,61.4426848 C319.638545,62.4179038 329.722222,64.7113662 334.013574,67.9437549 C339.820005,72.315265 354.312573,121.618266 345.423093,140.675428" id="Fill-234" fill="#6D89CF"></path>
                    <path d="M294.237624,87.5395349 C294.237624,87.5395349 311.385203,79.9994619 311.640221,79.4055884 C311.895239,78.8128932 310.791343,74.2374746 309.603621,72.8824061 C309.603621,72.8824061 317.837388,73.6447794 318.347423,72.6278888 C318.856278,71.6109982 319.237624,63.2461009 319.237624,63.2461009 C319.237624,63.2461009 315.810233,59.7040695 311.565841,59.3658915 C311.565841,59.3658915 307.839749,68.6086376 306.461945,71.3576593 C302.811414,78.643215 294.237624,87.5395349 294.237624,87.5395349" id="Fill-236" fill="#3662C1"></path>
                    <path d="M291.173701,72.6091549 C291.173701,72.6091549 292.275622,81.4317058 295.237624,87.5395349 C295.237624,87.5395349 286.306883,81.3042873 285.545191,79.2691308 C284.7835,77.2327945 287.704297,73.2875404 287.704297,73.2875404 C287.704297,73.2875404 282.370104,73.1601219 282.244137,71.3786226 C282.116992,69.5971233 283.893487,62.5985445 283.893487,62.5985445 C283.893487,62.5985445 288.481293,59.242011 289.751563,59.3694295 L291.173701,72.6091549 Z" id="Fill-238" fill="#3662C1"></path>
                    <g id="Group-242" transform="translate(281.237624, 0.000000)">
                        <mask id="mask-5" fill="white">
                            <use xlink:href="#path-4"></use>
                        </mask>
                        <g id="Clip-241"></g>
                        <path d="M37.6961152,23.6804961 L0.552842424,24.0749729 C0.552842424,24.0749729 0.00817575758,12.9541589 6.44514545,5.86272481 C6.73878182,5.53456589 7.05084242,5.21784109 7.38017576,4.90912016 C8.76890303,3.59877132 10.440903,2.46679457 12.4526,1.63439147 C19.8764182,-1.44138372 26.0347212,1.39656202 29.8830848,4.30425581 C30.2619333,4.58782171 30.618903,4.87481783 30.9505394,5.15952713 C33.0428424,6.92495349 34.2104788,8.49943023 34.2104788,8.49943023 C34.2104788,8.49943023 37.8158727,13.3840814 37.6961152,23.6804961" id="Fill-240" fill="#E75755" mask="url(#mask-5)"></path>
                    </g>
                    <path d="M308.843992,24.3937505 C308.743049,22.8741487 308.090364,9.93549351 312.584598,5.54836836 C312.254241,5.26068802 312.348301,5.31868809 311.970914,5.03100775 C307.178441,10.0746937 306.797613,22.8091886 306.817113,24.4157905 L294.989639,24.5433907 C294.638634,15.3793799 289.637394,6.25480919 289.037475,5.23632799 C288.709412,5.54952836 288.648617,5.61216843 288.354966,5.94392882 C289.223301,7.48905064 292.487872,16.323621 292.801023,24.5665907 L282.237624,24.6814308 C282.237624,24.6814308 292.092131,27.2577939 299.513696,27.1649938 C306.936408,27.0710336 319.237624,24.2812304 319.237624,24.2812304 L308.843992,24.3937505 Z" id="Fill-243" fill="#A83F3F"></path>
                </g>
            </g>
        </g>
    </g>
</svg>