<?xml version="1.0" encoding="UTF-8"?>
<svg width="52px" height="53px" viewBox="0 0 52 53" version="1.1" xmlns="http://www.w3.org/2000/svg" xmlns:xlink="http://www.w3.org/1999/xlink">
    <!-- Generator: sketchtool 64 (101010) - https://sketch.com -->
    <title>71AC243F-E6A5-4E9F-83B2-D2B8D6260252</title>
    <desc>Created with sketchtool.</desc>
    <g id="Landing-page" stroke="none" stroke-width="1" fill="none" fill-rule="evenodd">
        <g id="01-HOME" transform="translate(-207.000000, -6133.000000)" fill="#2C2E30">
            <g id="06-Contact" transform="translate(-210.000000, 5864.000000)">
                <g id="icon-locate" transform="translate(417.000000, 268.292226)">
                    <path d="M26.6559195,20.4501717 C24.2660782,20.4501717 22.3219512,22.4449989 22.3219512,24.8971641 C22.3219512,27.3480263 24.2660782,29.3415506 26.6559195,29.3415506 C29.0444909,29.3415506 30.9886179,27.3480263 30.9886179,24.8971641 C30.9886179,22.4449989 29.0444909,20.4501717 26.6559195,20.4501717" id="Fill-1"></path>
                    <g id="Group-5" transform="translate(0.655285, 0.000000)">
                        <path d="M31.70128,38.0761302 C29.09608,41.1596604 26.51298,42.9068164 26.40508,42.9788365 C26.23868,43.0908679 26.04758,43.1468836 25.85648,43.1468836 C25.66538,43.1468836 25.47428,43.0908679 25.30918,42.9788365 C25.19998,42.9068164 22.61818,41.1596604 20.01298,38.0761302 C16.52508,33.9469738 14.68038,29.3776941 14.68038,24.8590953 C14.68038,18.5373248 19.69448,13.3918838 25.85648,13.3918838 C32.01978,13.3918838 37.03388,18.5373248 37.03388,24.8590953 C37.03388,29.3776941 35.18918,33.9469738 31.70128,38.0761302 M25.63938,0.740340671 C11.47848,0.740340671 -0.00052,12.5169721 -0.00052,27.0450408 C-0.00052,41.5717758 11.47848,53.3484073 25.63938,53.3484073 C39.79898,53.3484073 51.27798,41.5717758 51.27798,27.0450408 C51.27798,12.5169721 39.79898,0.740340671 25.63938,0.740340671" id="Fill-3"></path>
                    </g>
                </g>
            </g>
        </g>
    </g>
</svg>