<?xml version="1.0" encoding="UTF-8"?>
<svg width="52px" height="54px" viewBox="0 0 52 54" version="1.1" xmlns="http://www.w3.org/2000/svg" xmlns:xlink="http://www.w3.org/1999/xlink">
    <!-- Generator: sketchtool 64 (101010) - https://sketch.com -->
    <title>989CB3E4-6738-48A4-AB46-6261B914AB4C</title>
    <desc>Created with sketchtool.</desc>
    <g id="Landing-page" stroke="none" stroke-width="1" fill="none" fill-rule="evenodd">
        <g id="01-HOME" transform="translate(-207.000000, -6296.000000)" fill="#2C2E30">
            <g id="06-Contact" transform="translate(-210.000000, 5864.000000)">
                <g id="icon-mail" transform="translate(417.000000, 432.293553)">
                    <path d="M42.206414,34.5752659 L34.64865,26.8226976 L42.206414,19.0674242 L42.206414,34.5752659 Z M41.0067689,37.9010799 L11.4559513,37.9010799 C11.173837,37.9010799 10.9075421,37.7969369 10.6992521,37.621111 L19.5093928,28.5809563 L23.6791482,32.8589349 C24.3580682,33.5554759 25.2610977,33.9382353 26.2221321,33.9382353 C27.1831664,33.9382353 28.0848777,33.5554759 28.7637977,32.8589349 L32.9533274,28.5606687 L41.776651,37.6143485 C41.568361,37.7928793 41.3007479,37.9010799 41.0067689,37.9010799 L41.0067689,37.9010799 Z M10.2365319,19.0674242 L17.8153885,26.8416327 L10.2365319,34.6158411 L10.2365319,19.0674242 Z M10.7045253,16.0229317 C10.7190265,16.0107591 10.7335277,15.999939 10.7493472,15.9877665 C10.7598935,15.9796514 10.7717581,15.9728889 10.7836228,15.9647739 C10.7994423,15.9539538 10.8152618,15.9444863 10.8310813,15.9350187 C10.8429459,15.9269037 10.8561288,15.9201411 10.8679934,15.9133786 C10.8838129,15.9039111 10.9009507,15.8944435 10.9180885,15.8863285 C10.9299531,15.8809185 10.943136,15.8741559 10.9550006,15.8687459 C10.9734567,15.8606309 10.9892762,15.8525158 11.006414,15.8457533 C11.0209152,15.8403433 11.0340981,15.8362857 11.0459627,15.8322282 C11.0644188,15.8254657 11.0828749,15.8187031 11.101331,15.8132931 C11.1145139,15.8092356 11.1276968,15.8051781 11.1408797,15.8011206 C11.1593358,15.7957105 11.1791102,15.791653 11.1988845,15.7875955 C11.2107491,15.7848905 11.2239321,15.7821855 11.237115,15.780833 C11.2582076,15.7767754 11.2806186,15.7740704 11.3030295,15.7713654 C11.3135759,15.7700129 11.3241222,15.7673079 11.3359868,15.7673079 C11.3689441,15.7646029 11.4019014,15.7618979 11.436177,15.7618979 L41.0067689,15.7618979 C41.0410445,15.7618979 41.0753201,15.7646029 41.1082773,15.7673079 C41.1188237,15.7673079 41.12937,15.7700129 41.1399163,15.7713654 C41.1623273,15.7740704 41.1847382,15.7767754 41.2058309,15.780833 L41.2453796,15.7875955 C41.2638357,15.791653 41.2836101,15.7957105 41.3020662,15.8011206 C41.3165674,15.8051781 41.328432,15.8092356 41.3416149,15.8132931 C41.360071,15.8187031 41.3785271,15.8254657 41.3969831,15.8322282 C41.4101661,15.8362857 41.423349,15.8403433 41.4365319,15.8457533 C41.4536697,15.8538683 41.4708075,15.8606309 41.4879452,15.8687459 C41.5011282,15.8741559 41.5129928,15.8809185 41.5261757,15.887681 C41.5433135,15.8944435 41.559133,15.9039111 41.5749525,15.9133786 C41.5868171,15.9201411 41.6,15.9269037 41.6118646,15.9350187 C41.6290024,15.9444863 41.6435036,15.9539538 41.6593231,15.9647739 C41.6711877,15.9728889 41.6830524,15.9796514 41.6935987,15.9877665 C41.7094182,15.999939 41.7239194,16.0107591 41.7397389,16.0229317 C41.7476486,16.0296942 41.7555584,16.0364567 41.7634681,16.0432193 L27.0684751,31.1196113 C26.8430473,31.35089 26.5411586,31.4793781 26.2221321,31.4793781 C25.9017873,31.4793781 25.6012169,31.35089 25.3744708,31.1196113 L10.6794778,16.0432193 C10.6873875,16.0364567 10.6952972,16.0296942 10.7045253,16.0229317 L10.7045253,16.0229317 Z M26.0006591,0.147208122 C11.6405121,0.147208122 0,12.0898422 0,26.8226976 C0,41.5542005 11.6405121,53.495482 26.0006591,53.495482 C40.3594879,53.495482 52,41.5542005 52,26.8226976 C52,12.0898422 40.3594879,0.147208122 26.0006591,0.147208122 L26.0006591,0.147208122 Z" id="Fill-1"></path>
                </g>
            </g>
        </g>
    </g>
</svg>