<?xml version="1.0" encoding="UTF-8"?>
<svg width="52px" height="54px" viewBox="0 0 52 54" version="1.1" xmlns="http://www.w3.org/2000/svg" xmlns:xlink="http://www.w3.org/1999/xlink">
    <!-- Generator: sketchtool 64 (101010) - https://sketch.com -->
    <title>87F76C30-4A4D-463E-959A-9081C9E528F7</title>
    <desc>Created with sketchtool.</desc>
    <g id="Landing-page" stroke="none" stroke-width="1" fill="none" fill-rule="evenodd">
        <g id="01-HOME" transform="translate(-207.000000, -6214.000000)" fill="#2C2E30">
            <g id="06-Contact" transform="translate(-210.000000, 5864.000000)">
                <g id="icon-phone" transform="translate(417.000000, 350.366493)">
                    <path d="M41.7002529,36.0416409 C41.4631792,36.4872179 39.2833603,40.047746 38.3528987,40.9194826 C37.44027,41.768736 36.2024517,42.0630621 35.2478631,42.0630621 C35.1471592,42.0630621 35.0475044,42.0610182 34.9530945,42.0528425 C33.6386994,41.9618875 24.9760697,39.1279769 19.0240522,32.7652192 C13.0667896,26.3993956 10.9729886,17.7382372 11,16.4546484 C11.0212425,15.4960447 11.419862,14.1552259 12.4709585,13.2671378 C13.4528211,12.4362798 17.3162826,10.6417082 17.7704989,10.4659301 C18.2016373,10.3003717 19.09958,9.94677159 19.819193,10.8685845 C20.0950796,11.2221846 24.5575193,18.12965 24.772564,18.9257612 C24.8942478,19.3927995 24.8669738,20.1040876 24.023579,20.8593201 C23.6564296,21.1832832 20.0468257,23.3784653 19.8894759,23.4704422 C19.7761841,23.53687 19.7038032,23.5838804 19.6796762,23.6114734 C19.6838722,23.6165833 19.6870192,23.6727914 19.7174402,23.7841856 C19.851712,24.2440701 21.5038846,27.3283623 23.1560573,29.0953408 C24.8082299,30.8643632 27.8083657,32.7478458 28.265729,32.918514 C28.4157358,32.9757441 28.4639897,32.9675684 28.4608427,32.9675684 C28.4744797,32.9532609 28.5720366,32.8224493 28.6066535,32.7805487 C28.7021124,32.651781 31.2805507,29.3447004 31.6518962,29.0135835 C32.501585,28.2675487 33.2358839,28.3043394 33.6974433,28.464788 C34.4684572,28.7376528 41.1337937,33.7054275 41.4768162,34.0120172 C42.35273,34.8050625 41.9111016,35.6410304 41.7002529,36.0416409 M51.3800032,20.885486 C49.1457713,10.2600863 40.4964082,1.97060458 29.9921533,0.373663368 C29.0835725,0.235888048 28.1800903,0.126294043 27.2704898,0 L24.7425752,0 C23.8441917,0.126294043 22.9254136,0.230669286 22.0219314,0.373663368 C10.7273845,2.12403618 1.78841763,11.3821202 0.248622961,22.9208032 C-1.62258446,37.0051984 7.24704071,49.8851034 20.8410822,52.7679476 C21.947491,53.0100981 23.0855114,53.0748108 24.2123148,53.2334611 C24.3897481,53.2553799 24.5661616,53.3044363 24.7425752,53.3482739 L27.2704898,53.3482739 C28.1800903,53.2230236 29.0835725,53.1123859 29.9921533,52.9756543 C40.9726228,51.2962566 49.8830373,42.3116358 51.6420742,31.1393098 C51.7603631,30.3564955 51.8817111,29.5799437 52,28.8033919 L52,24.5459258 C51.8021721,23.3205604 51.6420742,22.0941513 51.3800032,20.885486" id="Fill-104"></path>
                </g>
            </g>
        </g>
    </g>
</svg>