<?xml version="1.0" encoding="UTF-8"?>
<svg width="239px" height="219px" viewBox="0 0 239 219" version="1.1" xmlns="http://www.w3.org/2000/svg" xmlns:xlink="http://www.w3.org/1999/xlink">
    <!-- Generator: sketchtool 64 (101010) - https://sketch.com -->
    <title>3E8ACE20-F0AD-41CF-B5D3-494262B72B50</title>
    <desc>Created with sketchtool.</desc>
    <defs>
        <filter x="-21.4%" y="-21.6%" width="142.8%" height="143.2%" filterUnits="objectBoundingBox" id="filter-1">
            <feOffset dx="22" dy="5" in="SourceAlpha" result="shadowOffsetOuter1"></feOffset>
            <feGaussianBlur stdDeviation="1" in="shadowOffsetOuter1" result="shadowBlurOuter1"></feGaussianBlur>
            <feColorMatrix values="0 0 0 0 0   0 0 0 0 0   0 0 0 0 0  0 0 0 0.2 0" type="matrix" in="shadowBlurOuter1" result="shadowMatrixOuter1"></feColorMatrix>
            <feMerge>
                <feMergeNode in="shadowMatrixOuter1"></feMergeNode>
                <feMergeNode in="SourceGraphic"></feMergeNode>
            </feMerge>
        </filter>
        <path d="M34.1665535,0.396793103 L66.9141132,59.7422414 L49.9075728,69.3954138 C33.7489064,78.5688621 13.3194208,72.7190345 4.27710905,56.3318621 C-4.76646065,39.9434138 1.00008873,19.2234138 17.1574972,10.0512414 L34.1665535,0.396793103 Z" id="path-2"></path>
        <path d="M26.9139894,0.597866667 L54.4710476,31.54 C60.8517884,38.7036676 59.1286455,49.9684074 50.9978306,54.8595428 L50.6600847,55.0569333 C44.5440635,58.5314 36.8721905,57.2520667 32.1721693,51.9751333 L0.0174814815,15.8700667" id="path-4"></path>
        <path d="M12.06975,0.739058442 C14.271375,-0.574025974 17.054875,0.262954545 18.2875,2.61055195 L18.2875,2.61055195 L1.1886875,12.8151299 C-0.0439375,10.4687987 0.7421875,7.49948052 2.9438125,6.1863961 L2.9438125,6.1863961" id="path-6"></path>
        <path d="M43.001253,0.0476379599 L76.9579438,61.7689967 L35.5560643,85.3418771 C31.5421687,87.6283194 20.6867149,75.6638211 11.3094137,58.6193186 C1.9333494,41.5760744 -2.41452209,25.9057023 1.59813655,23.6205184 L43.001253,0.0476379599 Z" id="path-8"></path>
        <polygon id="path-10" points="0.608724428 0.44042531 87.7774857 0.44042531 87.7774857 141.998306 0.608724428 141.998306"></polygon>
        <path d="M2.24149797,0.657411765 C7.02947282,-0.535392157 15.2374297,5.45103922 24.6280786,16.217402 C33.0387471,25.8669118 42.4020361,39.3475882 51.1248558,54.9511569 C67.9412184,85.0327255 76.8020809,113.03 73.2042598,122.757951 C72.6844225,124.164912 71.903423,125.188382 70.8463376,125.781049 C70.4695178,125.991471 70.0628509,126.145863 69.628824,126.234265 C72.2342285,123.538627 72.3747587,117.056647 70.4309653,108.136765 C67.5196278,94.7743725 59.9135878,75.9360392 48.8850784,56.2074608 C33.8097976,29.2411275 16.8118651,8.59366667 6.13157208,3.17001961 C3.79479163,1.98095098 1.76394411,1.51901961 0.117378213,1.87387255 C0.423311152,1.55761765 0.760334836,1.29490196 1.13591105,1.08448039" id="path-12"></path>
        <linearGradient x1="33.7566449%" y1="-10.9704704%" x2="75.7540511%" y2="116.87177%" id="linearGradient-14">
            <stop stop-color="#FF4F5B" offset="0%"></stop>
            <stop stop-color="#FFFFFF" offset="100%"></stop>
        </linearGradient>
        <path d="M2.4125,0.635 C4.0675,0.276633663 6.10875,0.743138614 8.4575,1.9439802 C19.1925,7.42132673 36.2775,28.2732178 51.43,55.5065446 C62.515,75.4304554 70.16,94.4553069 73.08625,107.95 C75.04,116.958198 74.89875,123.504356 72.28,126.226683 C64.6475,127.92798 48.66625,111.914663 32.9,87.4564752 C34.005,87.0830198 35.08875,86.6039406 36.14375,86.0091782 C40.1175,83.7734752 42.9775,80.314297 44.535,76.3609505 C46.5525,71.205505 46.34375,65.2163861 43.4425,60.003099 C40.54125,54.7898119 35.5725,51.4714653 30.15375,50.5120495 C25.985,49.7739406 21.55875,50.4177426 17.58625,52.654703 C16.53,53.2494653 15.55,53.9297327 14.6625,54.6791584 C2.18375,28.371297 -3.02375,6.3009604 2.405,0.640029703 L2.405,0.640029703" id="path-15"></path>
        <path d="M9.95295775,0.19826087 C9.10557746,0.675443841 8.3835493,1.34903986 7.79815493,2.21401268 C1.068,11.9566033 10.3327746,45.4085145 30.1872958,81.038596 C50.0418169,116.669937 73.5816901,142.087799 85.3660423,141.420498 C86.4077183,141.371395 87.3566338,141.105734 88.2052676,140.62981 L88.2052676,140.62981 L84.105,142.823089 L81.9802817,143.953723 L81.966493,143.960018 C70.8251972,147.291486 45.9866761,121.178623 25.187,83.8500725 C3.5775493,45.0698279 -5.48290141,8.87568841 4.95266197,3.00973732 L4.95266197,3.00973732" id="path-17"></path>
    </defs>
    <g id="Landing-page" stroke="none" stroke-width="1" fill="none" fill-rule="evenodd">
        <g id="01-HOME" transform="translate(-38.000000, -5435.000000)">
            <g id="Nos-clients-temoignent" transform="translate(-177.000000, 5011.000000)">
                <g id="Illustration" filter="url(#filter-1)" transform="translate(215.000000, 424.000000)">
                    <path d="M67.7335907,166.263532 L50.7039309,175.740719 C34.5257541,184.746928 14.0700088,179.003748 5.01607432,162.915327 C-4.0391198,146.825653 1.73484179,126.483396 17.9130186,117.479692 L34.9426784,108 L67.7335907,166.263532 Z" id="Fill-1" fill="#DDDFEC"></path>
                    <g id="Group-5" transform="translate(0.733591, 107.000000)">
                        <mask id="mask-3" fill="white">
                            <use xlink:href="#path-2"></use>
                        </mask>
                        <g id="Clip-4"></g>
                    </g>
                    <path d="M109.956272,210.140467 L109.956272,210.140467 C103.770348,213.465795 96.01079,212.240929 91.2570504,207.188662 L58.7335907,172.620772 L85.9387727,158 L113.810792,187.624769 C120.352867,194.577397 118.472336,205.564806 109.956272,210.140467" id="Fill-6" fill="#DDDFEC"></path>
                    <g id="Group-10" transform="translate(59.733591, 156.000000)">
                        <mask id="mask-5" fill="white">
                            <use xlink:href="#path-4"></use>
                        </mask>
                        <g id="Clip-9"></g>
                    </g>
                    <path d="M42.4041624,95.5868847 L33.113103,100.735173 C30.8719342,101.976171 30.0728982,104.782478 31.3264539,107 L48.7335907,97.3568331 C47.4788263,95.1369181 44.6453312,94.3458865 42.4041624,95.5868847" id="Fill-14" fill="#191840"></path>
                    <g id="Group-18" transform="translate(31.733591, 95.000000)">
                        <mask id="mask-7" fill="white">
                            <use xlink:href="#path-6"></use>
                        </mask>
                        <g id="Clip-17"></g>
                    </g>
                    <path d="M18.2310721,114.690227 C14.2095752,116.985522 18.5669197,132.735166 27.9607398,149.861987 C37.3557991,166.991337 48.2318102,179.015395 52.2533071,176.718835 L93.7335907,153.027344 L59.7113557,91 L18.2310721,114.690227 Z" id="Fill-19" fill="#FF4F5B"></path>
                    <g id="Group-23" transform="translate(16.733591, 91.000000)">
                        <mask id="mask-9" fill="white">
                            <use xlink:href="#path-8"></use>
                        </mask>
                        <g id="Clip-22"></g>
                    </g>
                    <path d="M93.9141971,172 L97.959038,169.759966 L101.363511,163.42949 C102.316919,161.657523 101.345326,159.510073 99.3982429,158.950707 C94.3194606,157.487355 89.7784317,154 89.7784317,154 L85.7335907,156.24132" id="Fill-24" fill="#191840"></path>
                    <path d="M87.0002574,156 C87.0002574,156 91.3543074,159.44298 96.4088118,160.939085 C98.347083,161.512789 99.3142791,163.710235 98.3651856,165.523456 L97.2247219,167.703796 L94.9761204,172 L82.7335907,158.208726 L86.8895574,156.061879 L87.0002574,156 Z" id="Fill-26" fill="#191840"></path>
                    <path d="M85.9047624,116.881124 C95.8031602,133.847686 100.392643,149.447552 96.1556952,151.721202 C91.9187474,153.997357 80.4613617,142.08669 70.5629639,125.118876 C60.6645661,108.151061 56.0750834,92.5524476 60.3107255,90.278798 C64.5489789,88.002643 76.0063646,99.9133097 85.9047624,116.881124" id="Fill-31" fill="#FF929A"></path>
                    <path d="M93.8701984,151 C88.6297287,148.111088 80.4113492,137.99361 73.0837118,124.856478 C65.7560744,111.719345 61.4602172,99.4006121 61.7471088,93.4078168 L61.7408448,93.4115882 C93.0220516,69.7396069 115.080132,35.8885479 137.510294,6 L172.622569,68.951379 L207.733591,131.904015 C170.616833,135.460469 130.327982,136.623326 93.8626816,151" id="Fill-33" fill="#DDDFEC"></path>
                    <g id="Group-40" transform="translate(126.733591, 0.000000)">
                        <mask id="mask-11" fill="white">
                            <use xlink:href="#path-10"></use>
                        </mask>
                        <g id="Clip-39"></g>
                        <path d="M82.5925257,128.731299 C82.06704,130.149192 81.2788114,131.180616 80.2089829,131.777888 C79.8293257,131.989944 79.41824,132.145536 78.97824,132.234625 C71.3033829,133.932333 55.2295543,117.952799 39.3732114,93.5462103 C36.1071543,88.529628 32.8511543,83.1491615 29.6768686,77.4901355 C26.50384,71.8311094 23.6124114,66.2473697 21.0327543,60.8380435 C8.48144,34.5856836 3.24544,12.5619086 8.70395429,6.91292068 L8.71149714,6.90790159 C9.02075429,6.58793448 9.36269714,6.32317739 9.74235429,6.11112076 C10.0943543,5.9141214 10.4664686,5.77107728 10.8586971,5.6819884 C15.6999543,4.47991591 23.99584,10.5116095 33.4885257,21.3628861 C41.9905829,31.0873766 51.4556114,44.6728034 60.2744686,60.3976182 C77.2722971,90.7116782 86.2306971,118.927758 82.5925257,128.731299 M35.10144,19.9550308 C22.3980114,5.4222504 11.0384686,-2.15406874 4.95389714,1.24385644 C4.10281143,1.71941539 3.37995429,2.3919737 2.79161143,3.25400272 C-3.95673143,12.9621811 5.33355429,46.3014987 25.24544,81.809064 C45.1573257,117.319139 68.7652114,142.65175 80.5848686,141.985466 C81.6295543,141.93653 82.5799543,141.671772 83.43104,141.198723 C93.8980114,135.350226 84.8151543,99.2867966 63.1432686,60.6385346 C54.0767543,44.4720397 44.2433829,30.4097992 35.10144,19.9550308" id="Fill-38" fill="#FF4F5B" mask="url(#mask-11)"></path>
                    </g>
                    <path d="M160.615788,20.8691095 C151.08281,9.99372691 142.750449,3.9466771 137.889905,5.15155932 C137.496011,5.24085644 137.121055,5.38423491 136.767561,5.58295244 C136.386292,5.79550473 136.044161,6.06088067 135.733591,6.38033796 C137.405113,6.02189178 139.466741,6.48850066 141.838939,7.68960976 C152.681108,13.1681765 169.93667,34.0247129 185.24044,61.2641066 C196.436103,81.1924561 204.157424,100.221546 207.112888,113.719245 C209.086142,122.72945 208.943482,129.277067 206.298589,132 C206.739194,131.910703 207.152024,131.754747 207.534555,131.542195 C208.607663,130.943527 209.400499,129.909693 209.928216,128.488485 C213.580567,118.662029 204.585405,90.3812551 187.514164,59.9950814 C178.659137,44.2335114 169.153933,30.61633 160.615788,20.8691095" id="Fill-41" fill="#FF4F5B"></path>
                    <g id="Group-45" transform="translate(135.733591, 5.000000)">
                        <mask id="mask-13" fill="white">
                            <use xlink:href="#path-12"></use>
                        </mask>
                        <g id="Clip-44"></g>
                        <path d="M24.6280786,16.217402 C15.2374297,5.45103922 7.02947282,-0.535392157 2.24149797,0.657411765 C1.85348546,0.745813725 1.4841274,0.887754902 1.13591105,1.08448039 C0.760334836,1.29490196 0.423311152,1.55761765 0.117378213,1.87387255 C1.76394411,1.51901961 3.79479163,1.98095098 6.13157208,3.17001961 C16.8118651,8.59366667 33.8097976,29.2411275 48.8850784,56.2074608 C59.9135878,75.9360392 67.5196278,94.7743725 70.4309653,108.136765 C72.3747587,117.056647 72.2342285,123.538627 69.628824,126.234265 C70.0628509,126.145863 70.4695178,125.991471 70.8463376,125.781049 C71.903423,125.188382 72.6844225,124.164912 73.2042598,122.757951 C76.8020809,113.03 67.9412184,85.0327255 51.1248558,54.9511569 C42.4020361,39.3475882 33.0387471,25.8669118 24.6280786,16.217402" id="Fill-43" fill="url(#linearGradient-14)" mask="url(#mask-13)"></path>
                    </g>
                    <path d="M207.388924,113.721533 C204.429065,100.316172 196.696261,81.4172609 185.483948,61.625242 C170.15742,34.572194 152.876196,13.858338 142.017902,8.41725031 C139.642177,7.22435803 137.577483,6.76094125 135.90221,7.11693527 L135.895888,7.12193168 C130.404788,12.7453882 135.672097,34.669624 148.294168,60.803333 C149.191861,60.0588683 150.183116,59.3831042 151.251498,58.7910299 C155.269622,56.5701268 159.746709,55.9293375 163.963337,56.6638094 C169.444323,57.6168741 174.470139,60.9132539 177.404711,66.0920302 C180.338018,71.2708065 180.55043,77.2202787 178.509758,82.3415963 C176.93437,86.2675234 174.041523,89.7038026 170.022133,91.9259548 C168.955017,92.5155309 167.85882,92.9926878 166.741128,93.363671 C182.688456,117.659951 198.853254,133.567263 206.57215,131.877228 C209.222241,129.172923 209.363849,122.670099 207.388924,113.721533" id="Fill-46" fill="#DDDFEC"></path>
                    <g id="Group-50" transform="translate(133.733591, 6.000000)">
                        <mask id="mask-16" fill="white">
                            <use xlink:href="#path-15"></use>
                        </mask>
                        <g id="Clip-49"></g>
                        <path d="M51.43,55.5065446 C36.2775,28.2732178 19.1925,7.42132673 8.4575,1.9439802 C6.10875,0.743138614 4.0675,0.276633663 2.4125,0.635 L2.405,0.640029703 C-3.02375,6.3009604 2.18375,28.371297 14.6625,54.6791584 C15.55,53.9297327 16.53,53.2494653 17.58625,52.654703 C21.55875,50.4177426 25.985,49.7739406 30.15375,50.5120495 C35.5725,51.4714653 40.54125,54.7898119 43.4425,60.003099 C46.34375,65.2163861 46.5525,71.205505 44.535,76.3609505 C42.9775,80.314297 40.1175,83.7734752 36.14375,86.0091782 C35.08875,86.6039406 34.005,87.0830198 32.9,87.4564752 C48.66625,111.914663 64.6475,127.92798 72.28,126.226683 C74.4162727,123.990838 75.04,116.958198 73.08625,107.95 C70.16,94.4553069 62.515,75.4304554 51.43,55.5065446 Z" id="Fill-48" mask="url(#mask-16)"></path>
                    </g>
                    <path d="M178.368865,83.6770513 C180.437967,78.415935 180.223878,72.3040577 177.248422,66.9839143 C174.274248,61.6637709 169.178411,58.2774085 163.619782,57.2983276 C159.345689,56.5438065 154.806228,57.2020877 150.73084,59.4836157 C149.648856,60.091852 148.643791,60.7860627 147.733591,61.5508494 C150.364196,67.0827207 153.312731,72.7942398 156.548427,78.5801845 C159.784123,84.3674124 163.105712,89.86977 166.436274,95 C167.570819,94.6188899 168.681006,94.129991 169.764272,93.5230379 C173.838378,91.2415099 176.771528,87.7114292 178.368865,83.6770513" id="Fill-51" fill="#191840"></path>
                    <path d="M152.44117,82.2516893 C132.492729,46.8810513 123.185388,13.672723 129.94612,4.00232383 C130.534283,3.14239949 131.259727,2.47370832 132.111115,2 L127.087166,4.79100444 C116.602238,10.615492 125.705549,46.5460807 147.417221,85.0426937 C168.315288,122.099433 193.271305,148.022153 204.465304,144.716194 L204.479158,144.708694 L206.613927,143.586293 L210.733591,141.408984 C209.880943,141.881443 208.928798,142.14517 207.882194,142.193915 C196.040838,142.856357 172.389611,117.623577 152.44117,82.2516893" id="Fill-56" fill="#FF4F5B"></path>
                    <g id="Group-60" transform="translate(121.733591, 1.000000)">
                        <mask id="mask-18" fill="white">
                            <use xlink:href="#path-17"></use>
                        </mask>
                        <g id="Clip-59"></g>
                    </g>
                </g>
            </g>
        </g>
    </g>
</svg>